<svg xmlns="http://www.w3.org/2000/svg" xmlns:xlink="http://www.w3.org/1999/xlink" width="539.402" height="398.658" viewBox="0 0 539.402 398.658">
    <defs>
        <linearGradient id="linear-gradient" x1=".432" y1="7.174" x2="1.056" y2="11.263" gradientUnits="objectBoundingBox">
            <stop offset="0" stop-color="#fff" stop-opacity="0"/>
            <stop offset=".99" stop-color="#fff"/>
        </linearGradient>
        <linearGradient id="linear-gradient-2" x1=".502" y1="1.893" x2=".506" y2=".651" xlink:href="#linear-gradient"/>
        <linearGradient id="linear-gradient-3" x1=".673" y1="-.383" x2=".484" y2="17.51" gradientUnits="objectBoundingBox">
            <stop offset=".17" stop-color="#00272e"/>
            <stop offset="1" stop-color="#69b9eb" stop-opacity="0"/>
        </linearGradient>
        <linearGradient id="linear-gradient-4" x1=".497" y1="-20.351" x2=".507" y2="-26.204" gradientUnits="objectBoundingBox">
            <stop offset="0" stop-opacity="0"/>
            <stop offset=".91" stop-opacity=".8"/>
            <stop offset="1"/>
        </linearGradient>
        <linearGradient id="linear-gradient-5" x1=".509" y1="9.58" x2=".494" y2="13.631" xlink:href="#linear-gradient"/>
        <linearGradient id="linear-gradient-6" x1=".289" y1="-2.123" x2="-.814" y2="-2.063" xlink:href="#linear-gradient-4"/>
        <linearGradient id="linear-gradient-7" x1=".436" y1="1.318" x2=".649" y2="-1.507" xlink:href="#linear-gradient"/>
        <linearGradient id="linear-gradient-8" x1="1.024" y1="2.296" x2="-.006" y2="2.178" gradientUnits="objectBoundingBox">
            <stop offset="0" stop-color="#68e1fd"/>
            <stop offset="1" stop-color="#fff"/>
        </linearGradient>
        <linearGradient id="linear-gradient-9" x1=".977" y1="2.232" x2="-.195" y2="2.232" xlink:href="#linear-gradient"/>
        <linearGradient id="linear-gradient-10" x1=".544" y1="65.904" x2="1.544" y2="65.904" gradientUnits="objectBoundingBox">
            <stop offset="0" stop-color="#68e1fd"/>
            <stop offset="1" stop-color="#69b9eb"/>
        </linearGradient>
        <linearGradient id="linear-gradient-11" x1="1.014" y1="86.385" x2="2.014" y2="86.385" xlink:href="#linear-gradient-10"/>
        <linearGradient id="linear-gradient-12" x1="3.087" y1="122.833" x2="4.087" y2="122.833" xlink:href="#linear-gradient-10"/>
        <linearGradient id="linear-gradient-13" x1=".332" y1="2.434" x2=".782" y2=".924" xlink:href="#linear-gradient"/>
        <linearGradient id="linear-gradient-14" x1=".467" y1="1.639" x2=".617" y2="-2.859" xlink:href="#linear-gradient"/>
        <linearGradient id="linear-gradient-15" x1="1.11" y1="13.507" x2="-.361" y2="13.362" gradientUnits="objectBoundingBox">
            <stop offset="0" stop-color="#ecc4d7"/>
            <stop offset=".42" stop-color="#efd4d1"/>
            <stop offset="1" stop-color="#f2eac9"/>
        </linearGradient>
        <linearGradient id="linear-gradient-16" x1="52.905" y1="-89.29" x2="51.102" y2="-89.492" xlink:href="#linear-gradient-15"/>
        <linearGradient id="linear-gradient-17" x1=".913" y1="12.184" x2=".311" y2="12.19" xlink:href="#linear-gradient-15"/>
        <linearGradient id="linear-gradient-18" x1=".563" y1="20.317" x2="-1.507" y2="19.267" xlink:href="#linear-gradient-15"/>
        <linearGradient id="linear-gradient-19" x1=".956" y1="8.538" x2=".102" y2="8.448" xlink:href="#linear-gradient-15"/>
        <linearGradient id="linear-gradient-20" x1=".038" y1="8.084" x2="1.038" y2="8.084" xlink:href="#linear-gradient-15"/>
        <linearGradient id="linear-gradient-21" x1=".175" y1="12.695" x2="1.175" y2="12.695" gradientUnits="objectBoundingBox">
            <stop offset="0" stop-color="#183866"/>
            <stop offset="1" stop-color="#1a7fc1"/>
        </linearGradient>
        <linearGradient id="linear-gradient-22" x1=".06" y1="4.934" x2="1.06" y2="4.934" xlink:href="#linear-gradient-15"/>
        <linearGradient id="linear-gradient-23" x1=".246" y1="2.451" x2="1.248" y2="3.962" xlink:href="#linear-gradient"/>
        <linearGradient id="linear-gradient-24" x1=".086" y1="7.566" x2="1.09" y2="7.566" xlink:href="#linear-gradient-15"/>
        <style>
            .cls-1,.cls-3{fill:#27aee3}.cls-1{opacity:.18}.cls-4{fill:#3f3d56}.cls-13,.cls-24{fill:#fff}.cls-24{opacity:.24}
        </style>
    </defs>
    <g id="Book_Lover_Monochromatic_2_" data-name="Book Lover_Monochromatic (2)" transform="translate(-.003 -.001)">
        <path id="Path_709" data-name="Path 709" class="cls-1" d="M195.509 29.084c-14.175 13.134-24.681 30.018-39.743 42.1-25.466 20.464-60.035 24.533-89.986 37.56-19.812 8.618-38.6 22.273-47.361 42.025-7.078 16.009-6.184 34.881 1.174 50.7a50.089 50.089 0 0 1-3.055 47.755C5.631 266.5-.946 286.236.114 306.507c1.641 31.178 25.315 61.936 56.407 64.8 10.673.987 21.4-1.181 31.965-3.115 63.818-11.674 131.364-14.675 192.066 8.185 16.636 6.27 32.653 14.442 49.949 18.564 20.205 4.816 41.271 3.9 62.037 2.962 32.406-1.468 70.215-6 86.764-33.913 22.94-38.689-13.6-86.991-8.4-131.658 2.875-24.681 18.438-46.387 21.719-71 3.562-26.749-9.119-55.026-31.465-70.155-31.035-20.995-73.947-15.899-105.986-35.344-25.348-15.389-42.77-45.46-72.656-53.645-29.314-8.018-65.672 7.151-87.005 26.896z"/>
        <path id="Path_710" data-name="Path 710" d="M83.509 351.206c-3.135-21.526-10.613-42.252-13.641-63.8s-.921-45.24 12.881-62.037c9.005-10.96 21.946-17.8 34.6-24.208 11.253-5.7 22.84-11.387 35.354-12.934 11.033-1.334 22.166.567 33.2 1.888 20.759 2.481 41.9 2.808 62.5-.727 26.9-4.669 52.337-15.342 78.633-22.567 25.755-7.111 51.25-10.733 80.047 2.668 19.905 9.272 34.594 28.63 39.357 50.029 7.7 34.574-9.686 72.89 4.93 105.149 4.122 9.085 10.526 16.917 15.756 25.415a110.773 110.773 0 0 1 13.728 33.953c.914 4.129 1.588 8.485.42 12.547-3 10.406-15.863 13.868-26.682 14.722-35.975 2.842-71.916-3.869-107.8-7.771-58.248-6.324-117.022-5.21-175.37-.854q-21.419 1.6-42.812 3.735c-11.507 1.127-33.353 8-44.2 4.729-12.094-3.662-4.156-11.594-1.594-22.98 2.748-12.082 2.468-24.789.693-36.957z" transform="translate(-22.859 -53.424)" style="opacity:.11;fill:#27aee3"/>
        <path id="Path_711" data-name="Path 711" class="cls-3" d="M366.021 137.18s-5.517 22.427-13.761 28.684c-8.512 6.457-17.344-5.95-17.344-5.95L330 168.8s9.092 14.675 18.257 15.016 17.21-7.865 17.21-7.865z" transform="translate(-109.869 -45.672)"/>
        <path id="Path_712" data-name="Path 712" class="cls-4" d="m313.37 113.814 1.247-.554 25.428 6.464 7.638 51.5h-.954z" transform="translate(-104.333 -37.709)"/>
        <path id="Path_713" data-name="Path 713" d="M101.043 528.359s-55.466 3.716-63.444 9.032 54.5 6.484 154.191 3.489 176.451 0 230.8 5.483 128.075 4.423 129.1-9.005-134.581-13.588-134.581-13.588z" transform="translate(-12.29 -174.384)" style="fill:#000405;opacity:.05"/>
        <path id="Path_714" data-name="Path 714" class="cls-3" d="M613.13 335.981s-1.861 15.489-13.828 17.01h-52.564L539.26 267h55.366c4.469 0 13.628 4.816 15.456 11.634a29.494 29.494 0 0 1 .487 3.822c1.231 13.228 2.561 53.525 2.561 53.525z" transform="translate(-179.541 -88.895)"/>
        <path id="Path_715" data-name="Path 715" d="M724.032 117.152h-50.7l-15.049-14.775-.667-.667h50.5c4.469 0 13.628 4.816 15.456 11.634a30.433 30.433 0 0 1 .46 3.809z" transform="translate(-218.947 -33.863)" style="fill:url(#linear-gradient)"/>
        <path id="Path_716" data-name="Path 716" class="cls-3" d="m139.833 275-4.95-2.155a3.055 3.055 0 0 1 1.221-5.857h267.911a22.013 22.013 0 0 1 17.3 8.138 15.5 15.5 0 0 1 3.335 7.338c1.207 8.051.467 43.119.133 56.286a14.545 14.545 0 0 1-12.547 14.2l-.76.073H151.987z" transform="translate(-44.296 -88.891)"/>
        <path id="Path_717" data-name="Path 717" class="cls-3" d="m139.833 275-4.95-2.155a3.055 3.055 0 0 1 1.221-5.857h267.911a22.013 22.013 0 0 1 17.3 8.138 15.5 15.5 0 0 1 3.335 7.338c1.207 8.051.467 43.119.133 56.286a14.545 14.545 0 0 1-12.547 14.2l-.76.073H151.987z" transform="translate(-44.296 -88.891)"/>
        <path id="Path_718" data-name="Path 718" d="M424.8 338.718a14.545 14.545 0 0 1-12.547 14.2l-.76.073H152.007L139.833 275l-4.95-2.155a3.055 3.055 0 0 1 1.221-5.857h267.911a22.013 22.013 0 0 1 17.3 8.138 15.5 15.5 0 0 1 3.335 7.338c1.204 8.019.484 43.087.15 56.254z" transform="translate(-44.296 -88.891)" style="fill:url(#linear-gradient-2)"/>
        <path id="Path_719" data-name="Path 719" d="M121.216 392.274h286.035a3.736 3.736 0 0 0 3.736-3.729 3.736 3.736 0 0 0-3.736-3.736H121.216a3.736 3.736 0 0 0-3.736 3.736 3.736 3.736 0 0 0 3.736 3.729z" transform="translate(-39.113 -128.119)" style="opacity:.61;fill:url(#linear-gradient-3)"/>
        <path id="Path_720" data-name="Path 720" class="cls-3" d="M121.216 392.274h286.035a3.736 3.736 0 0 0 3.736-3.729 3.736 3.736 0 0 0-3.736-3.736H121.216a3.736 3.736 0 0 0-3.736 3.736 3.736 3.736 0 0 0 3.736 3.729z" transform="translate(-39.113 -128.119)"/>
        <path id="Path_721" data-name="Path 721" class="cls-3" d="M466.335 421.24v46.66a22.96 22.96 0 0 1-22.947 22.96H141.6a22.92 22.92 0 0 1-22.954-22.887V421.24a22.787 22.787 0 0 1 3.4-12.007 21.172 21.172 0 0 1 1.614-2.295 22.9 22.9 0 0 1 17.94-8.638h301.781a22.967 22.967 0 0 1 22.953 22.954z" transform="translate(-39.502 -132.61)"/>
        <path id="Path_722" data-name="Path 722" d="M349.851 530.381H142.636A22.953 22.953 0 0 1 121.75 517h214.92s3.095 11.34 13.181 13.381z" transform="translate(-40.535 -172.13)" style="fill:url(#linear-gradient-4)"/>
        <path id="Path_723" data-name="Path 723" d="M350.517 398.26c-9.526 1.574-12.187 10.933-12.187 10.933H123.75l1.614-2.295a22.9 22.9 0 0 1 17.936-8.638z" transform="translate(-41.2 -132.597)" style="fill:url(#linear-gradient-5)"/>
        <path id="Path_724" data-name="Path 724" d="M579.448 423.371v46.661a22.934 22.934 0 0 1-11.867 20.105h-94.776a14.408 14.408 0 0 1-14.415-14.4v-56.62a14.408 14.408 0 0 1 14.415-14.417h97.057a22.934 22.934 0 0 1 9.586 18.671z" transform="translate(-152.616 -134.741)" style="fill:url(#linear-gradient-6)"/>
        <path id="Path_725" data-name="Path 725" class="cls-3" d="M586.247 423.361v46.661a23.681 23.681 0 0 1-.14 2.577c-.04.372-.093.738-.153 1.105a21.8 21.8 0 0 1-1.267 4.669c-.14.38-.294.747-.467 1.114a23.181 23.181 0 0 1-2.8 4.669c-.294.374-.6.747-.927 1.107a22.973 22.973 0 0 1-6.11 4.9h-81.165a14.349 14.349 0 0 1-10.826-4.9 12.84 12.84 0 0 1-.881-1.107 14.008 14.008 0 0 1-2.208-4.669c-.1-.36-.18-.734-.247-1.114a13.931 13.931 0 0 1-.247-2.635v-56.633a14.214 14.214 0 0 1 .321-3 8.94 8.94 0 0 1 .273-1.1 14.188 14.188 0 0 1 2.375-4.669 13.54 13.54 0 0 1 .941-1.107 14.329 14.329 0 0 1 10.5-4.549h83.443a22.829 22.829 0 0 1 4.729 4.549c.28.36.554.727.814 1.107a22.191 22.191 0 0 1 2.467 4.664c.147.367.287.74.4 1.107a21.559 21.559 0 0 1 1.027 4.669c.047.367.08.74.1 1.114s.048 1.01.048 1.471z" transform="translate(-159.414 -134.731)"/>
        <path id="Path_726" data-name="Path 726" d="M586.247 423.361v46.661a23.681 23.681 0 0 1-.14 2.577c-.04.372-.093.738-.153 1.105a21.8 21.8 0 0 1-1.267 4.669c-.14.38-.294.747-.467 1.114a23.181 23.181 0 0 1-2.8 4.669c-.294.374-.6.747-.927 1.107a22.973 22.973 0 0 1-6.11 4.9h-81.165a14.349 14.349 0 0 1-10.826-4.9 12.84 12.84 0 0 1-.881-1.107 14.008 14.008 0 0 1-2.208-4.669c-.1-.36-.18-.734-.247-1.114a13.931 13.931 0 0 1-.247-2.635v-56.633a14.214 14.214 0 0 1 .321-3 8.94 8.94 0 0 1 .273-1.1 14.188 14.188 0 0 1 2.375-4.669 13.54 13.54 0 0 1 .941-1.107 14.329 14.329 0 0 1 10.5-4.549h83.443a22.829 22.829 0 0 1 4.729 4.549c.28.36.554.727.814 1.107a22.191 22.191 0 0 1 2.467 4.664c.147.367.287.74.4 1.107a21.559 21.559 0 0 1 1.027 4.669c.047.367.08.74.1 1.114s.048 1.01.048 1.471z" transform="translate(-159.414 -134.731)" style="fill:url(#linear-gradient-7)"/>
        <path id="Path_727" data-name="Path 727" class="cls-13" d="M583.686 412.627H483.26a13.517 13.517 0 0 1 .941-1.107h98.665c.28.36.56.727.82 1.107z" transform="translate(-160.896 -137.011)"/>
        <path id="Path_728" data-name="Path 728" class="cls-13" d="M585.232 421.257H479.29a8.945 8.945 0 0 1 .273-1.107h105.269c.147.367.287.74.4 1.107z" transform="translate(-159.574 -139.885)"/>
        <path id="Path_729" data-name="Path 729" class="cls-13" d="M586.2 429.894H478.8v-1.114h107.3c.043.367.077.74.1 1.114z" transform="translate(-159.411 -142.758)"/>
        <path id="Rectangle_146" data-name="Rectangle 146" class="cls-13" transform="translate(319.396 291.785)" d="M0 0h107.443v1.107H0z"/>
        <path id="Rectangle_147" data-name="Rectangle 147" class="cls-13" transform="translate(319.396 297.542)" d="M0 0h107.443v1.107H0z"/>
        <path id="Rectangle_148" data-name="Rectangle 148" class="cls-13" transform="translate(319.396 303.306)" d="M0 0h107.443v1.107H0z"/>
        <path id="Rectangle_149" data-name="Rectangle 149" class="cls-13" transform="translate(319.396 309.069)" d="M0 0h107.443v1.101H0z"/>
        <path id="Rectangle_150" data-name="Rectangle 150" class="cls-13" transform="translate(319.396 314.826)" d="M0 0h107.443v1.101H0z"/>
        <path id="Rectangle_151" data-name="Rectangle 151" class="cls-13" transform="translate(319.396 320.589)" d="M0 0h107.443v1.101H0z"/>
        <path id="Rectangle_152" data-name="Rectangle 152" class="cls-13" transform="translate(319.396 326.346)" d="M0 0h107.443v1.101H0z"/>
        <path id="Rectangle_153" data-name="Rectangle 153" class="cls-13" transform="translate(319.396 332.109)" d="M0 0h107.443v1.107H0z"/>
        <path id="Path_730" data-name="Path 730" class="cls-13" d="M586.107 506.5c-.04.374-.093.74-.153 1.107H478.81V506.5z" transform="translate(-159.414 -168.634)"/>
        <path id="Path_731" data-name="Path 731" class="cls-13" d="M584.852 515.13c-.14.38-.294.747-.467 1.114H479.457c-.1-.36-.18-.734-.247-1.114z" transform="translate(-159.547 -171.507)"/>
        <path id="Path_732" data-name="Path 732" class="cls-13" d="M582.766 523.77c-.294.374-.6.747-.927 1.107h-98.1a12.834 12.834 0 0 1-.881-1.107z" transform="translate(-160.763 -174.384)"/>
        <path id="Path_733" data-name="Path 733" class="cls-3" d="M333.189 347.793h68.374a20.813 20.813 0 0 1-9.339 2.188h-254.23a20.4 20.4 0 0 1-11.767-3.609 17.893 17.893 0 0 1-2.715-2.3c-.267-.273-.527-.56-.774-.847a17.43 17.43 0 0 1-2.361-3.569c-.14-.28-.273-.567-.394-.847a15.823 15.823 0 0 1-1.067-3.569c-.047-.28-.093-.56-.127-.854a16.784 16.784 0 0 1-.12-2V296.59a10.865 10.865 0 0 1 .04-1.141c.04-.374.047-.567.08-.847a16.009 16.009 0 0 1 .861-3.569c.107-.287.22-.567.34-.854a16.43 16.43 0 0 1 2.081-3.562l.667-.854a18.213 18.213 0 0 1 1.581-1.628A20.259 20.259 0 0 1 137.994 279h254.23a20.552 20.552 0 0 1 11.253 3.335h-70.288a13.1 13.1 0 0 0-3.175.387 12.254 12.254 0 0 0-5.67 3.1 9.624 9.624 0 0 0-.794.854 10.512 10.512 0 0 0-2 3.562 7.708 7.708 0 0 0-.233.854 9.906 9.906 0 0 0-.267 2.3v43.406a10.084 10.084 0 0 0 .207 2 7.485 7.485 0 0 0 .213.847 10.306 10.306 0 0 0 1.854 3.569 11.206 11.206 0 0 0 .74.847 11.914 11.914 0 0 0 4.049 2.748 12.868 12.868 0 0 0 5.076.987z" transform="translate(-39.508 -92.89)"/>
        <path id="Path_734" data-name="Path 734" d="M512.567 298.652v36.215a3.131 3.131 0 0 1-.04.614c-.04.2 0 .407-.053.607a3.411 3.411 0 0 0-.073.554 1.891 1.891 0 0 1-.073.427 1.094 1.094 0 0 1-.04.214c-.033.193-.073.394-.12.587s-.06.254-.1.38-.06.247-.1.374-.073.267-.113.4l-.14.407a.941.941 0 0 1-.107.327c-.04.107-.107.287-.167.427l-.18.434a1.472 1.472 0 0 1-.107.233 2.874 2.874 0 0 1-.147.327c-.04.093-.093.187-.14.28s-.14.287-.22.42-.227.434-.354.667l-.207.334c-.187.307-.38.6-.587.887-.107.153-.213.294-.32.434-.213.287-.44.56-.667.834s-.507.574-.78.847a18.476 18.476 0 0 1-1.741 1.568.087.087 0 0 1-.047.04c-.2.16-.4.307-.607.46l-.667.46-.667.427a10.1 10.1 0 0 1-.667.38l-.767.407H434.2a13.007 13.007 0 0 1-5.076-1.007 12.041 12.041 0 0 1-4.049-2.735 11.214 11.214 0 0 1-.74-.847 10.22 10.22 0 0 1-1.854-3.549 7.05 7.05 0 0 1-.213-.84 10.088 10.088 0 0 1-.207-2V295.4a9.752 9.752 0 0 1 .267-2.288 7.591 7.591 0 0 1 .233-.847 10.419 10.419 0 0 1 2-3.542 9.611 9.611 0 0 1 .794-.854 12.421 12.421 0 0 1 5.67-3.082 13.42 13.42 0 0 1 3.175-.38h70.288c.307.2.614.407.907.627l.34.253a16.3 16.3 0 0 1 1.334 1.107l.367.347.267.267.36.374.36.4.073.087.053.067c.213.253.427.52.627.787.107.133.207.273.307.407a.106.106 0 0 0 .04.053q.273.387.52.78l.287.467c.173.293.34.6.494.9.073.16.153.307.227.46s.147.32.207.474.127.28.18.427.113.28.16.42l.147.42a13.6 13.6 0 0 1 .487 1.768 1.334 1.334 0 0 1 .047.233 2.332 2.332 0 0 0 .08.42c0 .14.073.474.107.707s.067.56.08.847v.454c.001.185.021.458.021.692z" transform="translate(-140.52 -94.691)" style="fill:url(#linear-gradient-8)"/>
        <path id="Path_735" data-name="Path 735" class="cls-3" d="M328.112 348.427c-1.508.367-3.062.7-4.669 1.014h-181.26a82.636 82.636 0 0 1-15.956-1.421 17.892 17.892 0 0 1-2.715-2.3c-.267-.273-.527-.56-.774-.847a17.43 17.43 0 0 1-2.361-3.569c-.14-.28-.273-.567-.394-.847a15.823 15.823 0 0 1-1.067-3.569c-.047-.28-.093-.56-.127-.854a16.784 16.784 0 0 1-.12-2v-35.797a10.865 10.865 0 0 1 .04-1.141c.04-.374.047-.567.08-.847a16.009 16.009 0 0 1 .861-3.569c.107-.287.22-.567.34-.854a16.43 16.43 0 0 1 2.081-3.562l.667-.854a18.213 18.213 0 0 1 1.581-1.628 81.748 81.748 0 0 1 17.877-1.834h186.323l1.494.387a12.254 12.254 0 0 0-5.67 3.1 9.616 9.616 0 0 0-.794.854 10.513 10.513 0 0 0-2 3.562 7.694 7.694 0 0 0-.233.854 9.906 9.906 0 0 0-.267 2.3v43.406a10.083 10.083 0 0 0 .207 2 7.5 7.5 0 0 0 .213.847 10.306 10.306 0 0 0 1.854 3.569 11.208 11.208 0 0 0 .74.847 11.934 11.934 0 0 0 4.049 2.755z" transform="translate(-39.508 -94.537)"/>
        <path id="Path_736" data-name="Path 736" d="M328.112 348.427c-1.508.367-3.062.7-4.669 1.014h-181.26a82.636 82.636 0 0 1-15.956-1.421 17.892 17.892 0 0 1-2.715-2.3c-.267-.273-.527-.56-.774-.847a17.43 17.43 0 0 1-2.361-3.569c-.14-.28-.273-.567-.394-.847a15.823 15.823 0 0 1-1.067-3.569c-.047-.28-.093-.56-.127-.854a16.784 16.784 0 0 1-.12-2v-35.797a10.865 10.865 0 0 1 .04-1.141c.04-.374.047-.567.08-.847a16.009 16.009 0 0 1 .861-3.569c.107-.287.22-.567.34-.854a16.43 16.43 0 0 1 2.081-3.562l.667-.854a18.213 18.213 0 0 1 1.581-1.628 81.748 81.748 0 0 1 17.877-1.834h186.323l1.494.387a12.254 12.254 0 0 0-5.67 3.1 9.616 9.616 0 0 0-.794.854 10.513 10.513 0 0 0-2 3.562 7.694 7.694 0 0 0-.233.854 9.906 9.906 0 0 0-.267 2.3v43.406a10.083 10.083 0 0 0 .207 2 7.5 7.5 0 0 0 .213.847 10.306 10.306 0 0 0 1.854 3.569 11.208 11.208 0 0 0 .74.847 11.934 11.934 0 0 0 4.049 2.755z" transform="translate(-39.508 -94.537)" style="fill:url(#linear-gradient-9)"/>
        <path id="Path_737" data-name="Path 737" d="M549.6 386.11a16.441 16.441 0 0 1-1.741 1.734 18.589 18.589 0 0 0 1.741-1.734z" transform="translate(-182.404 -128.551)" style="fill:url(#linear-gradient-10)"/>
        <path id="Path_738" data-name="Path 738" d="M552.624 291.571c-.1-.153-.2-.307-.307-.454-.2-.293-.414-.587-.627-.867.333.427.647.867.934 1.321z" transform="translate(-183.679 -96.636)" style="fill:url(#linear-gradient-11)"/>
        <path id="Path_739" data-name="Path 739" d="M556.18 298.587c.053.153.1.307.147.46-.087-.314-.193-.62-.307-.927.06.153.113.307.16.467z" transform="translate(-185.121 -99.256)" style="fill:url(#linear-gradient-12)"/>
        <path id="Path_740" data-name="Path 740" class="cls-3" d="M506.847 298.652v36.615a4.973 4.973 0 0 1-.067.774 15.249 15.249 0 0 1-.707 3.229c-.08.26-.167.514-.267.76a18.164 18.164 0 0 1-8.919 9.566H417c-6.164 0-11.253-4.162-12.007-9.552a4.989 4.989 0 0 1-.08-.774 5.6 5.6 0 0 1-.033-.667V295.4c0-6.077 5.43-10.993 12.141-10.993h81.748a17.027 17.027 0 0 1 8.078 14.245z" transform="translate(-134.8 -94.691)"/>
        <path id="Path_741" data-name="Path 741" class="cls-13" d="M510.406 289.994h-84.6a9.611 9.611 0 0 1 .794-.854h83.1a7.8 7.8 0 0 1 .706.854z" transform="translate(-141.768 -96.266)"/>
        <path id="Path_742" data-name="Path 742" class="cls-13" d="M511.713 296.574H422.46a7.691 7.691 0 0 1 .234-.854h88.719c.087.307.199.594.3.854z" transform="translate(-140.653 -98.457)"/>
        <path id="Path_743" data-name="Path 743" class="cls-13" d="M512.533 303.234H422.06v-.854h90.4c0 .28.053.567.073.854z" transform="translate(-140.52 -100.674)"/>
        <path id="Rectangle_154" data-name="Rectangle 154" class="cls-13" transform="translate(281.54 206.122)" d="M0 0h90.513v.854H0z"/>
        <path id="Rectangle_155" data-name="Rectangle 155" class="cls-13" transform="translate(281.54 210.538)" d="M0 0h90.513v.854H0z"/>
        <path id="Rectangle_156" data-name="Rectangle 156" class="cls-13" transform="translate(281.54 214.954)" d="M0 0h90.513v.854H0z"/>
        <path id="Rectangle_157" data-name="Rectangle 157" class="cls-13" transform="translate(281.54 219.376)" d="M0 0h90.513v.847H0z"/>
        <path id="Rectangle_158" data-name="Rectangle 158" class="cls-13" transform="translate(281.54 223.792)" d="M0 0h90.513v.847H0z"/>
        <path id="Rectangle_159" data-name="Rectangle 159" class="cls-13" transform="translate(281.54 228.208)" d="M0 0h90.513v.847H0z"/>
        <path id="Rectangle_160" data-name="Rectangle 160" class="cls-13" transform="translate(281.54 232.624)" d="M0 0h90.513v.847H0z"/>
        <path id="Rectangle_161" data-name="Rectangle 161" class="cls-13" transform="translate(281.54 237.04)" d="M0 0h90.513v.854H0z"/>
        <path id="Path_744" data-name="Path 744" class="cls-13" d="M512.58 362v.854h-90.52V362z" transform="translate(-140.52 -120.524)"/>
        <path id="Path_745" data-name="Path 745" class="cls-13" d="M511.356 368.59c0 .287-.367.567-.394.854h-88.379a7.607 7.607 0 0 1-.214-.854z" transform="translate(-140.623 -122.718)"/>
        <path id="Path_746" data-name="Path 746" class="cls-13" d="M328.491 289.994H123.75l.667-.854h202.446c.56.28 1.101.574 1.628.854z" transform="translate(-41.2 -96.266)"/>
        <path id="Path_747" data-name="Path 747" class="cls-13" d="M325.441 296.574H120.12c.107-.287.22-.567.34-.854h204.174a9.769 9.769 0 0 1 .807.854z" transform="translate(-39.992 -98.457)"/>
        <path id="Path_748" data-name="Path 748" class="cls-13" d="M327.239 303.237H118.71a6.005 6.005 0 0 1 .08-.847h208.236a6.3 6.3 0 0 1 .213.847z" transform="translate(-39.522 -100.678)"/>
        <path id="Rectangle_162" data-name="Rectangle 162" class="cls-13" transform="translate(79.141 206.122)" d="M0 0h208.67v.847H0z"/>
        <path id="Rectangle_163" data-name="Rectangle 163" class="cls-13" transform="translate(79.141 210.538)" d="M0 0h208.67v.847H0z"/>
        <path id="Rectangle_164" data-name="Rectangle 164" class="cls-13" transform="translate(79.141 214.954)" d="M0 0h208.67v.854H0z"/>
        <path id="Rectangle_165" data-name="Rectangle 165" class="cls-13" transform="translate(79.141 219.376)" d="M0 0h208.67v.847H0z"/>
        <path id="Rectangle_166" data-name="Rectangle 166" class="cls-13" transform="translate(79.141 223.799)" d="M0 0h208.67v.84H0z"/>
        <path id="Rectangle_167" data-name="Rectangle 167" class="cls-13" transform="translate(79.141 228.208)" d="M0 0h208.67v.84H0z"/>
        <path id="Rectangle_168" data-name="Rectangle 168" class="cls-13" transform="translate(79.141 232.624)" d="M0 0h208.67v.847H0z"/>
        <path id="Rectangle_169" data-name="Rectangle 169" class="cls-13" transform="translate(79.141 237.04)" d="M0 0h208.67v.854H0z"/>
        <path id="Path_749" data-name="Path 749" class="cls-13" d="M327.059 362a7.685 7.685 0 0 1-.314.854H118.937c-.047-.28-.093-.56-.127-.854z" transform="translate(-39.556 -120.524)"/>
        <path id="Path_750" data-name="Path 750" class="cls-13" d="M324.827 368.6a12.536 12.536 0 0 1-.941.847H121.014c-.14-.28-.273-.567-.394-.847z" transform="translate(-40.158 -122.722)"/>
        <path id="Path_751" data-name="Path 751" d="M392.85 267c-3.008 3.615-6.9 7.251-8.438 8.058-8.765 4.616-18.918 8.151-24.061 16.623-6.51 10.673-2.3 24.635-5.29 36.788a11.517 11.517 0 0 1-3.108 6c-1.714 1.528-4.469 2.048-6.29.667-1.6-1.207-2-3.4-2.3-5.376a210.378 210.378 0 0 1-.294-56.4c-10.006 4.469-16.777 13.9-22.12 23.44s-9.826 19.765-17.27 27.776c-2.115 2.268-4.9 4.489-7.965 4.049-3.689-4.669-1.754-11.493.34-17.083 4.2-11.26 8.4-22.533 13.835-33.206 1.748-3.469 3.689-6.951 6.624-9.5a16.887 16.887 0 0 1 2.588-1.848z" transform="translate(-97.762 -88.891)" style="opacity:.2;fill:#3f3d56"/>
        <path id="Path_752" data-name="Path 752" class="cls-13" d="M409.511 375.22c-.227.3-.48.534-.734.847H125.524c-.267-.273-.527-.56-.774-.847z" transform="translate(-41.533 -124.926)"/>
        <path id="Path_753" data-name="Path 753" d="M192.346 490.838h-34.227c-10.973-2.762-16.29-14.629-16.29-14.629s-.994-58.034 0-65.372 17.617-12.607 17.617-12.607h32.9C181.373 399.8 173.4 410.5 173.4 410.5s-.667 64.138 0 68.454 18.946 11.884 18.946 11.884z" transform="translate(-47.073 -132.587)" style="fill:url(#linear-gradient-13)"/>
        <path id="Path_754" data-name="Path 754" class="cls-3" d="M203.957 490.838h-10.973c-10.96-2.762-16.276-14.629-16.276-14.629s-1-58.034 0-65.372 17.61-12.607 17.61-12.607h9.639c-10.973 1.57-18.944 12.27-18.944 12.27s-.667 64.138 0 68.454 18.944 11.884 18.944 11.884z" transform="translate(-58.684 -132.587)"/>
        <path id="Path_755" data-name="Path 755" d="M203.957 490.838h-10.973c-10.96-2.762-16.276-14.629-16.276-14.629s-1-58.034 0-65.372 17.61-12.607 17.61-12.607h9.639c-10.973 1.57-18.944 12.27-18.944 12.27s-.667 64.138 0 68.454 18.944 11.884 18.944 11.884z" transform="translate(-58.684 -132.587)" style="fill:url(#linear-gradient-14)"/>
        <path id="Path_756" data-name="Path 756" d="m287.649 329.8-3.189 5.537 7.4 3.222 3.062-5.27z" transform="translate(-94.707 -109.803)" style="fill:url(#linear-gradient-15)"/>
        <path id="Path_757" data-name="Path 757" d="m363.7 352.09-.347 6.17 8.071-.467.34-5.7z" transform="translate(-120.973 -117.225)" style="fill:url(#linear-gradient-16)"/>
        <path id="Path_758" data-name="Path 758" class="cls-4" d="M276.722 334.255a2.8 2.8 0 0 0-.667-.887 2.468 2.468 0 0 0-1.094-.4l-12.814-2.575a5.336 5.336 0 0 0-1.414-.153 4.742 4.742 0 0 0-3.042 1.908 2.768 2.768 0 0 0-.84 1.654 2.888 2.888 0 0 0 1.174 2 32.875 32.875 0 0 0 2.835 2.348 59.211 59.211 0 0 0 5.917 3.649c1.374.774 2.748 1.548 4.156 2.255 2.315 1.161 4.716 2.135 7.131 3.082a.707.707 0 0 0 .974-.227 19.525 19.525 0 0 0 4.056-6.31c.233-.58.667-1.854 0-2.335-.233-.167-.894-.14-1.187-.207a8.338 8.338 0 0 1-5.19-3.8z" transform="translate(-85.515 -109.949)"/>
        <path id="Path_759" data-name="Path 759" class="cls-4" d="M355.768 356.922a2.949 2.949 0 0 0-1.021-.434 2.6 2.6 0 0 0-1.147.2l-12.367 4.222a5.375 5.375 0 0 0-1.334.574 4.779 4.779 0 0 0-1.674 3.182 2.708 2.708 0 0 0 .113 1.848 2.862 2.862 0 0 0 2 1.127 30.269 30.269 0 0 0 3.629.6 57.457 57.457 0 0 0 6.944.18c1.581 0 3.155-.04 4.729-.14 2.588-.16 5.156-.527 7.711-.921a.707.707 0 0 0 .734-.667 19.712 19.712 0 0 0 .34-7.5c-.093-.62-.38-1.928-1.187-2-.287-.033-.841.327-1.127.414a7.532 7.532 0 0 1-1.334.28 8.292 8.292 0 0 1-5.01-.967z" transform="translate(-112.571 -118.688)"/>
        <path id="Path_761" data-name="Path 761" class="cls-4" d="M388.664 228.278s-2.095 19.6-20.165 23.08c-12.234 2.341-27.2 1.508-35.574.727a10.786 10.786 0 0 0-10.113 4.983L296.8 298.506l-7.538-3.642h-.06l-2.668-1.281 21.659-50.57a22.887 22.887 0 0 1 14.422-13.261l24.888-7.7 5.817-1.8s23.296-2.352 35.344 8.026z" transform="translate(-95.397 -73.253)"/>
        <path id="Path_762" data-name="Path 762" class="cls-24" d="m347.559 223 1.634 3.462s-28.684 8.4-32.206 12.494c-4.7 5.47-27.69 56.867-27.69 56.867h-.06l-2.668-1.281 21.631-50.536a22.887 22.887 0 0 1 14.422-13.261z" transform="translate(-95.41 -74.245)"/>
        <path id="Path_763" data-name="Path 763" class="cls-4" d="M381.311 227.3s-23.04 22.48-23.787 34.487S360 311.443 360 311.443h11.18s-.554-45.707 4-46.027 25.208-13.635 28.523-17.437 8.605-17.29 8.605-17.29z" transform="translate(-118.996 -75.677)"/>
        <path id="Path_764" data-name="Path 764" class="cls-3" d="M418.448 197.639s-18.438 9.426-37.649-1.6a43.064 43.064 0 0 1-4.809-3.209s8.085-14.442 1.648-35.421c-2.755-8.972-2.815-26.1 10.826-28.543h.067c13.568-2.408 12.8.941 12.8.941l6.137 5.964c11.801 9.571 13.095 24.246 10.98 61.868z" transform="translate(-125.181 -42.614)"/>
        <path id="Path_765" data-name="Path 765" class="cls-24" d="M388.531 129.28a7.772 7.772 0 0 1-2.555 3.088s-8.111 3.6-6.49 15.489 4.589 34.767 4.589 34.767l-3.275 13.842a43.063 43.063 0 0 1-4.809-3.209s8.085-14.442 1.648-35.421c-2.755-8.972-2.815-26.1 10.826-28.543z" transform="translate(-125.181 -43.042)"/>
        <path id="Path_766" data-name="Path 766" class="cls-4" d="M404.763 128.14a8.485 8.485 0 0 1-11.953 1.06l-.294-.253s-10.006 10.006.107 11.213c5.336.667 11.907-5.79 13.808-9.439z" transform="translate(-129.213 -42.663)"/>
        <path id="Path_767" data-name="Path 767" d="M408.552 114.09c-.04.133-1.921 5.89-3.335 10.006a13.341 13.341 0 0 1-6.23 7.531 14.836 14.836 0 0 1-5.67 2 2.615 2.615 0 0 1-2.842-2.368 2.582 2.582 0 0 1 .354-1.568c.467-.82.974-1.768 1.441-2.775a14.047 14.047 0 0 0 1.654-6.264v-.2c-.12-.961.507-1.808 1.561-2.548a21.079 21.079 0 0 1 6.117-2.461 63 63 0 0 1 6.951-1.354z" transform="translate(-130 -37.985)" style="fill:url(#linear-gradient-17)"/>
        <path id="Path_768" data-name="Path 768" d="M394.654 127.314a5.436 5.436 0 0 1-1.394.1 14.047 14.047 0 0 0 1.654-6.264l1.548-2.748 1.154-2.041 4.963-.42 5.016-.42c-3.309 7.824-8.865 11.066-12.941 11.793z" transform="translate(-130.931 -38.461)" style="fill:url(#linear-gradient-18)"/>
        <path id="Path_769" data-name="Path 769" d="M400.886 74.486a13.455 13.455 0 0 0-15.923 10.406c-.067.34-.127.667-.173 1.034a45.541 45.541 0 0 0-.127 16.33c2.288 8.372 14.582 5.336 17.077 2.795S414.26 90.8 412.619 86.24c-1.047-3.095-4.719-10.173-11.733-11.754z" transform="translate(-127.844 -24.703)" style="fill:url(#linear-gradient-19)"/>
        <path id="Path_770" data-name="Path 770" class="cls-4" d="m388.986 62.069 1.894 1.741a8.558 8.558 0 0 0-7.671 1.448 11.22 11.22 0 0 0-5.209 6.67l4.209-.754s-1.534 4.529 5.443 6.791 14.362 4.589 14.362 4.589l-1.494-4s3.916 2.948 4.242 4.789a55.405 55.405 0 0 1-.667 8.338s2.988-4.069 3.442-2.882-2.148 4.9-3.335 5.563-1.748 3.4-1.894 3.6 5.336-2.295 5.877-3.522 8.505-12.908 6.317-16.4l1.794.34a8.765 8.765 0 0 0-3.108-2.281s-7.452-18.293-24.202-14.03z" transform="translate(-125.851 -20.45)"/>
        <path id="Path_771" data-name="Path 771" d="M382.384 208.828c-1.007-1.007-2-2.208-3.409-2.448-.494 1.174.514 2.381.941 3.575a.961.961 0 0 1 0 .854c-.2.32-.667.34-1.034.314a16.243 16.243 0 0 1-5.17-1.241 15.875 15.875 0 0 0-4.629-1.694.827.827 0 0 0-.52.067c-.4.253-.167.867.12 1.241a14.447 14.447 0 0 0 2.075 2.208 11.446 11.446 0 0 0-3.669-.941c-.354 0-.834.073-.827.427a.667.667 0 0 0 .2.38 11.34 11.34 0 0 0 3.335 2.615 11.286 11.286 0 0 0-2.8-.233c-.407 0-.947.213-.887.614a.667.667 0 0 0 .187.347 8.512 8.512 0 0 0 4.363 2.795l-2.668.06a1.034 1.034 0 0 0-.487.1c-.48.307-.06 1.061.407 1.387 2.055 1.434 4.669 1.688 7.184 1.868 4.81.347 9.872.534 14.208-1.588.314-.16.667-.374.727-.72a1.214 1.214 0 0 0-.08-.534c-.527-1.754-.794-4.936-2.388-6-.774-.514-1.728-.807-2.521-1.334a30.009 30.009 0 0 0-2.658-2.119z" transform="translate(-121.89 -68.712)" style="fill:url(#linear-gradient-20)"/>
        <path id="Path_772" data-name="Path 772" class="cls-3" d="M429.732 186.95c-1.508 14.815-28.357 16.63-28.357 16.63l-2.768-9.519-.487-1.674s14.382-1.814 17.13-6.317-8.565-19.6-1.728-28.016 8.392-5.83 8.392-5.83 9.312 19.91 7.818 34.726z" transform="translate(-132.549 -50.556)"/>
        <path id="Path_773" data-name="Path 773" d="M334.687 171.27a10.7 10.7 0 0 1-.113 1.387c-.227 2.075-.874 5.87-2.595 7.251-2.421 1.941-2.755-.887-2.7-2a11.836 11.836 0 0 1 .3-1.814c.56-2.415 3.529-4.069 4.669-4.616z" transform="translate(-109.627 -57.022)" style="fill:url(#linear-gradient-21)"/>
        <path id="Path_774" data-name="Path 774" d="M329.283 164.2c-.227 2.075-.874 5.87-2.595 7.251-.747-.54-1.708-1.261-2.7-2a367.18 367.18 0 0 0-3.762-2.788 12.675 12.675 0 0 1-2.428-2.121 12.1 12.1 0 0 1-1.548-2.668l-2.068-4.5c-.667-1.474-1.334-3.422-.147-4.563.3-.294 3.035-.827 3.215-1.214.5-1.107-2.668-3.449-2.468-4.669a1.488 1.488 0 0 1 1.581-1.054c.667.033 2.561 1.774 3.155 2.128 1.174.667.187 1.614 1.334 2.308a15.222 15.222 0 0 1 4 2.975 15.4 15.4 0 0 1 2.568 5.336c.454 1.381 1.061 2.875 1.528 4.363.128.429.241.822.335 1.216z" transform="translate(-104.336 -48.565)" style="fill:url(#linear-gradient-22)"/>
        <path id="Path_775" data-name="Path 775" class="cls-3" d="m319.467 142.987-4.449-21.1-1.648-7.8 25.855 6.931 7.5 50.476-24.025-7.321z" transform="translate(-104.333 -37.985)"/>
        <path id="Path_776" data-name="Path 776" d="M325.473 145.683 315.24 122.95l8.085 44.173 24.027 7.324-2.575-17.31z" transform="translate(-104.955 -40.935)" style="fill:url(#linear-gradient-23)"/>
        <path id="Path_777" data-name="Path 777" d="M320.957 165.044c.814-.407 2.481-1.147 2.9-1.954.1-.193.247-.447.12-.62-.58-.8-2.968.22-3.649 0 .467-.767 4.629-3.1 2.668-3.622-.42-.113-3.028 1.207-3.449 1.087.327-.267 3.008-2.175 3.469-2.668a.874.874 0 0 0-.981-1.394 40.768 40.768 0 0 1-4.363 1.708c.287-.474 4.162-2.668 4.316-3.229a1.041 1.041 0 0 0 .04-.667.921.921 0 0 0-.567-.5 4.715 4.715 0 0 0-3.375.434l-2.561 1.014c-.82.32-1.728.734-2 1.561a2.8 2.8 0 0 0-.06 1.287 16.784 16.784 0 0 0 2.808 7.531c.76 1.107 3.162 3.782 4.543 4.042 1.228.232-1.006-3.377.141-4.01z" transform="translate(-104.349 -50.943)" style="fill:url(#linear-gradient-24)"/>
        <path id="Path_778" data-name="Path 778" class="cls-24" d="M362.291 259.9s8.819-20.2 19.009-25.953l-3.475-1.407s-17.9 19.031-20.012 28.824 2.128 51.81 2.128 51.81h2.935s-4.847-49.149-.585-53.274z" transform="translate(-118.934 -77.422)"/>
        <path id="Path_779" data-name="Path 779" class="cls-24" d="M415.981 192.422c-5.677 2.335-15.342 4.369-17.424 4.8l-.4.08-.087-1.754s14.382-1.814 17.13-6.317-8.565-19.6-1.728-28.016c0 0-.867 7.444 1.381 12.948s7.505 15.59 1.128 18.259z" transform="translate(-132.533 -53.673)"/>
    </g>
</svg>
