<svg data-name="Iconly/Light/Call" xmlns="http://www.w3.org/2000/svg" width="32" height="32" viewBox="0 0 32 32">
    <path data-name="Call" d="M.654 3.163C1.076 2.465 3.4-.075 5.058 0a2.182 2.182 0 0 1 1.29.69 22.484 22.484 0 0 1 3.29 4.453C9.961 6.7 8.1 7.6 8.673 9.17a13.163 13.163 0 0 0 7.492 7.489c1.569.568 2.468-1.288 4.026-.964a22.525 22.525 0 0 1 4.453 3.29 2.185 2.185 0 0 1 .689 1.29c.062 1.746-2.636 4.1-3.162 4.4-1.241.887-2.859.872-4.832-.045C11.832 22.343 3.032 13.71.7 8-.194 6.033-.255 4.4.654 3.163z" transform="translate(3.333 3.333)" style="fill:none;stroke:#151616;stroke-linecap:round;stroke-linejoin:round;stroke-miterlimit:10;stroke-width:1.5px"/>
</svg>
