<svg xmlns="http://www.w3.org/2000/svg" width="531" height="262" fill="none" viewBox="0 0 531 262">
    <path fill="#F0F5FF" d="M84.487 206.134s8.196 14.098 67.324 20.499c59.128 6.401 88.985 27.872 126.536 34.273 37.551 6.401 84.05-35.894 124.361-29.412 40.311 6.401 88.985-18.068 92.832-25.36H84.487zM511.513 203.298h-8.781l-385.211.081s-3.931-2.998-9.952-8.103a404.463 404.463 0 0 1-8.865-7.697 1666.9 1666.9 0 0 1-3.68-3.322c-11.458-10.452-25.34-24.307-36.631-38.972-11.876-15.476-20.908-32.005-21.159-46.589v-.972c.167-14.098 3.01-29.412 10.12-43.51 4.181-8.264 9.7-16.124 17.06-23.254C83.484 12.487 114.428-.396 162.433.01c55.95.404 113.991 20.66 166.428 48.613 10.956 5.834 21.661 12.073 32.115 18.474 7.694 4.78 15.221 9.642 22.497 14.584 20.323 13.774 39.14 28.196 55.783 42.295 37.718 31.842 64.23 62.064 72.258 79.322z"/>
    <path fill="url(#a)" d="M511.513 203.298h-8.781l-385.211.081s-3.931-2.998-9.952-8.103a404.463 404.463 0 0 1-8.865-7.697 1666.9 1666.9 0 0 1-3.68-3.322c-11.458-10.452-25.34-24.307-36.631-38.972-11.876-15.476-20.908-32.005-21.159-46.589 4.767-2.43 15.974-7.373 25.257-5.104 12.127 2.916 14.72 16.934 14.72 16.934s8.697-6.806 17.813-3.565 10.538 12.639 10.538 12.639 10.788-5.347 20.406-3.079c9.701 2.269 17.479 11.344 7.109 17.258-10.287 5.834-21.828 1.297-22.163 1.216.167.162 4.182 5.509-3.178 11.991-7.527 6.644 21.326 12.397 21.326 12.397s1.088-18.149 20.407-16.124c19.319 2.026 34.958 12.154 34.958 12.154s1.004-27.791 16.476-32.896c15.472-5.104 23.417 11.262 23.417 11.262s34.289-21.471 45.914-1.458 12.127 23.821 12.127 23.821 9.952-52.665 41.063-50.235c31.111 2.431 36.882 23.335 36.38 25.442-.502 2.106 8.949-13.531 18.316-5.024 9.367 8.508 14.803 20.337 14.803 20.337l49.259-5.59s-5.018-9.399-3.011-17.096c37.802 31.842 64.314 62.064 72.342 79.322z" opacity=".45"/>
    <path fill="url(#b)" d="M360.977 67.096H215.373c18.232 0 21.828-6.4 32.617-9.884.501-.162 1.003-.324 1.505-.405 10.12-2.512 18.399 3.078 24.839 2.835 6.774-.243 14.217-7.21 21.995-9.641 2.593-.81 5.353-.567 8.113.08 5.436 1.216 11.123 3.89 16.893 2.837 5.018-.892 5.436-2.917 7.444-4.294 11.039 5.833 21.828 11.99 32.198 18.472z"/>
    <path fill="url(#c)" d="M172.469 54.214H47.355c4.098-8.102 9.534-15.88 16.726-22.93.084-.08.25-.243.334-.324a66.57 66.57 0 0 1 9.535-1.134c19.82-.81 24.002 13.693 24.002 13.693s5.185-6.725 14.552-3.484c9.367 3.24 6.105 7.211 13.549 9.399a9.798 9.798 0 0 0 3.094.243c7.109-.567 16.057-8.103 24.003-5.348 9.199 3.16 3.261 9.885 19.319 9.885z"/>
    <path fill="#3C4043" d="M528.156 208.807H62.909c-1.589 0-2.843-1.215-2.843-2.755 0-1.539 1.254-2.754 2.843-2.754h465.247c1.59 0 2.844 1.215 2.844 2.754 0 1.54-1.254 2.755-2.844 2.755z"/>
    <path fill="#fff" d="M304.526 50c-8.28 2.026-17.647 10.777-23.752 12.073-7.61 1.62-16.475-2.107-25.09-4.213-2.592-.648-4.599-.972-6.188-1.134 10.119-2.512 18.399 3.078 24.838 2.835 6.775-.243 14.218-7.21 21.996-9.641 2.676-.81 5.352-.567 8.196.08zM129.142 49.676c-7.443 3.808-10.956-4.78-17.396-7.616-7.443-3.24-12.712 6.887-14.886 5.104-2.175-1.701-3.178-9.236-11.625-13.125-4.767-2.188-14.05-2.674-21.076-2.674l.335-.324a66.598 66.598 0 0 1 9.534-1.134c19.821-.81 24.003 13.692 24.003 13.692s5.185-6.724 14.552-3.483c9.367 3.24 6.105 7.21 13.548 9.398.92.162 2.007.243 3.011.162z" opacity=".25"/>
    <path fill="#F0F5FF" d="M330.035 32.014s52.27 45.21 72.927 39.053c20.825-6.158-109.475-65.872-72.927-39.053zM29.039 77.954s-17.814 30.303 13.298 62.226c7.192 7.373 8.028 21.147-6.357 21.877-14.384.729-36.714-33.22-35.961-60.525.836-27.305 33.87-39.702 29.02-23.578z"/>
    <path fill="#000" d="M113.757 172.509l-6.607 22.2a408.078 408.078 0 0 1-8.865-7.697l-1.421-2.593s2.508-28.52-5.771-39.944c7.945 5.347 11.792 26.98 11.792 26.98l-1.254 1.621h1.254s2.007 3.646 2.76 8.994c5.101-25.604.167-38.001 0-38.406.167.243 4.182 4.943 6.523 12.721 2.426 7.94 1.506 12.883 1.506 12.883l-2.008 3.16h2.091v.081z"/>
    <path fill="#F7F7F7" d="M261.959 181.826s-15.555-14.179-13.047-33.057c1.589 8.75 8.196 19.202 8.196 19.202l-.836 2.35 2.927-.567s3.68-21.552-4.6-32.004c11.207 11.181 11.04 27.791 11.04 27.791l-2.091 3.079 2.091.891s-2.425 8.102 4.851 4.942c7.276-3.079 11.875-29.897 5.268-36.703 7.862 6.562 6.607 29.168 6.607 29.897 0 .73-3.428 3.808-3.428 3.808l2.592 1.864s-1.589 15.313-19.57 8.507z"/>
    <path fill="#000" d="M333.293 201.92s-5.436-4.943-4.516-11.505c.585 3.079 2.843 6.644 2.843 6.644l-.251.81 1.004-.162s1.254-7.535-1.589-11.1c3.847 3.889 3.847 9.641 3.847 9.641l-.753 1.054.753.324s-.837 2.835 1.672 1.701c2.509-1.053 4.098-10.371 1.84-12.72 2.76 2.268 2.258 10.127 2.258 10.37 0 .244-1.17 1.297-1.17 1.297l.92.648c-.084.081-.586 5.428-6.858 2.998z"/>
    <path fill="#F5FBFF" d="M341.232 202.811h-71.339l11.458-8.993s15.221-7.616 21.577-5.996c6.356 1.54 5.353 6.725 5.353 6.725s.418-.405 1.003-.891c1.422-1.054 4.098-2.512 6.774-.973 3.848 2.269 3.262 5.186 3.262 5.348.084-.081 2.425-2.269 4.349-1.621 1.924.73 2.676 2.755 2.676 2.755s2.509-3.322 4.6-2.107c2.091 1.216 3.345 3.727 3.345 3.727s3.346-3.24 6.942 2.026z"/>
    <path fill="#F5FBFF" d="M327.526 202.811h-57.539l11.458-8.993s15.221-7.616 21.577-5.996c6.356 1.54 5.353 6.725 5.353 6.725s.418-.405 1.003-.891a11.613 11.613 0 0 1 0 3.402s3.262-1.215 5.353.487c2.09 1.701 1.505 3.24 1.505 3.24s2.844-1.62 6.105 0c.92.568 3.011 1.297 5.185 2.026z" opacity=".25"/>
    <path fill="#32A5EE" d="M198.234 154.197V78.359h-29.69v.243l-35.794 55.744-15.64 24.388 1.757 17.582h49.677v26.414h29.69v-26.414h13.13v-22.2h-13.13v.081zm-29.69 0h-23.082l21.242-35.407 1.84-2.917v38.324z" filter="url(#d)"/>
    <path fill="#32A5EE" d="M301.856 88.73c-7.777-9.156-18.817-13.774-33.118-13.774-14.217 0-25.257 4.537-33.035 13.693-7.778 9.156-11.708 22.038-11.708 38.891v22.768c0 16.691 3.93 29.655 11.708 38.81 7.862 9.156 18.901 13.774 33.202 13.774 14.134 0 25.174-4.537 32.951-13.693 7.778-9.155 11.709-22.038 11.709-38.891v-22.687c0-16.772-3.931-29.735-11.709-38.891zm-48.005 33.22c.168-8.346 1.422-14.504 3.764-18.636 2.342-4.132 6.021-6.158 11.123-6.158 5.269 0 9.032 2.188 11.458 6.644 2.425 4.457 3.596 11.101 3.596 20.013v30.789c-.084 8.913-1.255 15.476-3.68 19.689-2.425 4.213-6.189 6.32-11.207 6.32-5.269 0-9.032-2.188-11.457-6.482-2.258-4.051-3.513-10.371-3.597-18.798V121.95zM407.486 154.197V78.359h-29.689v.243l-51.434 80.133 1.756 17.582h49.678v26.414h29.689v-26.414h13.047v-22.201h-13.047v.081zm-29.689 0h-23.083l21.243-35.407 1.84-2.917v38.324z"/>
    <path fill="#fff" d="M192.716 78.359c-4.014 4.942-17.646 3.16-20.657 3.484-3.513.324-27.682 41.565-30.944 46.831-2.175 3.403-5.938 5.024-8.28 5.753l35.795-55.744v-.243h24.086v-.081zM407.485 78.359v57.365c-7.611-6.158-3.429-51.37-4.6-52.828-1.254-1.62-17.145-.567-20.072-1.458-1.923-.567-3.512-2.188-4.349-3.16h29.021v.08z" opacity=".25"/>
    <path fill="#000" d="M275.01 187.66c-23.919 1.053-21.159-32.409-21.159-32.409.167 8.507 1.338 14.746 3.596 18.797 2.425 4.294 6.272 6.482 11.458 6.482 5.017 0 8.781-2.107 11.206-6.32 2.426-4.213 3.68-10.776 3.68-19.689v-30.789c0-8.912-1.171-15.637-3.596-20.012-2.425-4.457-6.272-6.644-11.458-6.644 0 0 14.803-1.783 20.908 19.526 6.022 21.31 9.367 70.005-14.635 71.058z" opacity=".25"/>
    <path fill="#FCE2E3" d="M243.57 88.567s-9.953-6.967-11.04-17.824c7.193 1.944 11.04 10.451 11.04 10.451s-1.84-7.778 0-13.044c5.269 7.454 3.847 13.53 0 20.417z"/>
    <path fill="url(#e)" d="M442.265 151.686s.084.243-.251.567c-.251.243-.669.486-1.422.81-4.516 1.702-13.799-2.431-18.901-5.186-5.018-2.754-19.402-.486-29.104-1.782-9.701-1.296-13.799-6.32-22.497-8.426-8.698-2.107-41.147 6.968-42.987-.082-1.84-7.049 34.624-75.676 37.802-70.895 3.094 4.78 13.883 5.104 21.493 8.912 7.611 3.808 14.051 22.687 22.498 24.551 1.17.243 2.258.648 3.345 1.215 6.69 3.484 11.541 12.153 11.708 19.284.168 8.264 11.876 14.908 16.141 19.364 4.182 4.538 2.175 11.668 2.175 11.668z"/>
    <path fill="#fff" d="M442.263 151.686s.083.243-.251.567c1.505-9.075-7.109-13.369-15.054-19.689-8.112-6.563-4.683-11.505-6.356-18.23-1.004-3.97-5.185-9.237-8.363-12.883 6.69 3.484 11.541 12.153 11.708 19.284.167 8.264 11.876 14.908 16.141 19.364 4.182 4.457 2.175 11.587 2.175 11.587z" opacity=".25"/>
    <path fill="url(#f)" d="M476.391 194.952v2.674c-.502-.081-1.673 0-2.677.162-.669.081-1.254.081-1.589.162l-.251-2.269 1.087-.162 3.43-.567z"/>
    <path fill="#2F1829" d="M442.104 150.47l-2.174 1.945c-.335.243-.168.729.167.891l1.84.567 4.182 4.456c.168.162.502.243.669 0l.67-.648c.167-.162.25-.486 0-.648l-4.183-4.456-.418-1.783c0-.486-.502-.648-.753-.324z"/>
    <path fill="url(#g)" d="M458.661 153.306c-.585.729-1.254 1.62-2.007 2.512-.251.324-.585.648-.836.972-1.171 1.377-2.175 2.511-2.509 2.592-.836.162-5.52-2.43-6.189-2.43-.669 0-2.258 1.134-2.676.972-.418-.081-2.676-2.106-2.593-2.674.084-.486 2.091-2.268 3.095-2.511.251-.081.92 0 1.672.162h.084c1.923.405 4.767 1.296 5.185 1.053.251-.081.669-.81 1.171-1.701l.502-.973c.251-.405.418-.81.669-1.215.167-.405.334-.729.502-.972.418.648 1.087 1.458 1.84 2.187.836 1.054 1.672 1.864 2.09 2.026z"/>
    <path fill="url(#h)" d="M477.651 158.654c0 1.458 0 2.916-.084 4.051-.335 4.618-.753 8.345-2.342 8.426-1.589.081-1.924-12.396-1.84-13.126 0-.162 0-.486.083-.891.084-1.377.084-3.808.084-4.861v-.486l.335-.162 3.513-2.188s.167 2.917.334 6.32v1.377c-.083.486-.083.972-.083 1.54z"/>
    <path fill="#000" d="M477.647 158.654c-.837.648-2.175 1.539-3.513 1.62-2.175.081 1.003-4.375 1.756-4.456.251 0 .92-.081 1.673-.081v1.377c.084.486.084.972.084 1.54z" opacity=".25"/>
    <path fill="#2F1829" d="M477.648 157.114c-.921.324-2.092.486-3.681.162-.251-.081-.418-.081-.585-.243-1.339-.729-.837-2.917.083-4.861.084-.243.251-.487.335-.649l3.513-2.187s.251 3.808.335 7.778z"/>
    <path fill="#2F172B" d="M470.204 132.401a3.71 3.71 0 0 1-.669 1.621c-.418.729-1.087 1.458-1.673 1.944-.502.324-.92.567-1.254.567-1.088-.162-2.509-1.944-2.593-2.268 0-.324 1.171-.486 1.087-1.458-.167-.973-.836-1.135-1.254-.973-.502.162-1.088 1.216-1.088 2.188-.334-.081-.919-1.215-2.09-1.945-.335-.162-.669-.324-1.088-.405a3.41 3.41 0 0 0-1.756.162c-.334-3.565 1.924-5.104 3.596-4.456 0 0-.585-1.215-1.505-1.458 2.091.324 2.593 2.025 2.593 2.025s.585-2.349 3.178-2.673c2.592-.324 3.094 2.997 3.094 2.997s.585-1.62.335-2.592c.501 1.296-.084 3.484-.084 3.484s1.254.324 1.589 1.944c-1.087-.81-1.087-.729-1.087-.729s.752.486.669 2.025z"/>
    <path fill="url(#i)" d="M467.867 135.885c-.168.568-.419 1.054-.502 1.297-.251.486-2.928 2.673-4.852.162-1.589-2.107-1.84-4.537-1.84-5.266 1.171.648 1.757 1.863 2.091 1.944 0-.972.586-1.944 1.088-2.188.502-.162 1.087 0 1.254.973.168.972-1.087 1.134-1.087 1.458 0 .324 1.422 2.107 2.593 2.269.335-.081.753-.243 1.255-.649z"/>
    <path fill="#2F172B" d="M469.2 125.433c-.084-.161-.084-.242-.167-.323.083.081.083.243.167.323z"/>
    <path fill="#FF837C" d="M478.479 148.931c-.251.486-.586.891-.837 1.296-.083.081-.167.243-.251.324-.836.973-1.589 1.54-1.589 1.54v.081c0 .081 0 .162.084.324.084.324.167.891.251 1.62 0 .081 0 .243.084.324.083.324.083.649.083.973 0 .162.084.405.084.567v.324c.083.567.083 1.053.083 1.62v.324a8.08 8.08 0 0 1-.167 1.621c0 .162-.083.243-.083.324-.084.162-.084.243-.168.324-.083.081-.251.162-.418.243-1.254.567-4.432.567-7.694.405-2.76-.162-5.52-.405-6.942-.648-.418-.081-.752-.162-1.003-.324-.167-.081-.335-.243-.418-.324-.084-.081-.168-.162-.168-.243-.251-.405-.334-.81-.334-1.378v-.324c.084-.486.167-.972.251-1.539v-.081c0-.081.083-.243.083-.324.168-.567.335-1.054.419-1.621 0-.081 0-.162.083-.243v-.081c.167-.648.251-1.215.251-1.62 0-.162 0-.243.084-.324.083-1.054 0-1.378 0-1.378s-.251.648-.669 1.378c-.084.081-.168.243-.168.324-.251.405-.585.81-.752.81h-.168c-.25-.081-.585-.405-1.003-.81l-.335-.324a7.312 7.312 0 0 1-.752-.811c-.251-.243-.502-.567-.753-.81-.084-.081-.167-.243-.251-.324a40.994 40.994 0 0 1-.836-1.053c-.168-.243-.251-.405-.335-.567-.083-.081-.083-.162-.083-.243v-.081c.083-.244.25-.892.501-1.621.084-.081.084-.243.168-.324a9.087 9.087 0 0 1 .752-1.621c.084-.081.084-.243.168-.324.25-.486.585-1.053.836-1.62.084-.081.167-.243.167-.324.335-.567.669-1.135 1.004-1.621.083-.081.167-.243.251-.324.501-.648.92-1.215 1.421-1.62.168-.162.251-.243.419-.324.083-.081.167-.081.25-.162.67-.405 1.339-.73 2.008-.973 2.258-.81 4.181-.729 4.181-.729 1.087 0 2.175.243 3.262.648.753.324 1.505.73 2.258 1.216.167.081.335.243.502.324.585.486 1.171.972 1.672 1.62.084.081.168.243.335.324.418.486.836 1.054 1.171 1.621.083.081.167.243.251.324.334.486.585 1.053.92 1.62.083.081.083.243.167.324.251.487.502 1.054.753 1.621.083.081.083.243.167.324.167.486.418 1.053.585 1.621 0 .081.084.243.084.324a.853.853 0 0 1 .084.405z"/>
    <path fill="#fff" d="M472.471 138.883h-12.796c.168-.162.251-.243.419-.324h11.875c.168.081.335.162.502.324zM474.474 140.828h-16.391c.083-.081.167-.243.25-.324h15.891c0 .081.083.162.25.324zM475.812 142.772h-19.068c.084-.081.167-.243.167-.324h18.734c.084.081.084.162.167.324zM476.901 144.716h-21.159c.084-.081.084-.242.167-.323h20.825c.084.081.084.161.167.323zM477.732 146.661h-22.831c.083-.081.083-.243.167-.324h22.581c0 .081.083.243.083.324zM478.404 148.606h-24.003c-.083-.081-.083-.162-.083-.242v-.081h24.002c0 .081.084.161.084.323zM477.652 150.227c-.084.081-.168.243-.251.324h-21.494c-.084-.081-.167-.243-.251-.324h21.996zM457.323 152.172h2.426c-.084.081-.167.242-.167.323h-1.924c-.084-.081-.167-.242-.335-.323zM475.9 152.495h-15.555c0-.162 0-.242.083-.323H475.9v.323zM476.233 154.44h-16.225c0-.081 0-.162.084-.243v-.081h16.141v.324zM476.484 156.385h-16.977c0-.081.084-.243.084-.324h16.893c-.083.162 0 .243 0 .324zM476.566 158.005v.324h-17.395v-.324h17.395zM476.4 159.95c0 .162-.083.243-.083.324h-16.141c-.168-.081-.335-.243-.418-.324H476.4z" opacity=".25"/>
    <path fill="#2F1829" d="M476.724 192.765c-.752.486-5.854.972-5.854.972l-.167-.891-.92-5.429-2.258-12.721-2.258 15.962-.669 4.699s-6.273.324-6.273-1.134c0-.162 0-.81.084-1.864.167-6.481.92-27.791 1.087-32.571.251.486.836.81 1.673.891h.251c3.178.486 12.126 1.215 14.301.243.083.81.167 2.026.251 3.565.334 6.158.585 17.339.752 23.578v4.7z"/>
    <path fill="#000" d="M469.78 187.416l-2.258-12.72s.586-5.104.837-5.753c.25-.567 1.84-.162 2.509-.567.334.811-1.924 1.945-2.091 4.619-.084 1.863.585 10.046 1.003 14.421z" opacity=".25"/>
    <path stroke="#fff" stroke-linecap="round" stroke-linejoin="round" stroke-miterlimit="10" stroke-width=".464" d="M460.672 162.543s-.167 2.916 2.258 4.294" opacity=".25"/>
    <g stroke="#fff" stroke-linecap="round" stroke-linejoin="round" stroke-width=".464" opacity=".25">
        <path d="M461.258 166.432l-.084.566" opacity=".25"/>
        <path stroke-dasharray="1.39 1.39" d="M461.178 168.052l-1.17 24.145" opacity=".25"/>
        <path d="M459.922 192.764v.567" opacity=".25"/>
    </g>
    <path stroke="#fff" stroke-dasharray="1.39 1.39" stroke-linecap="round" stroke-linejoin="round" stroke-miterlimit="10" stroke-width=".464" d="M469.784 169.187l2.259 22.929" opacity=".25"/>
    <path stroke="#fff" stroke-linecap="round" stroke-linejoin="round" stroke-miterlimit="10" stroke-width=".464" d="M471.708 162.948s-.251 2.836 0 3.322c.251.567 1.338.972 1.589 1.134.251.081 1.255-.81 1.338-1.377.084-.568.084-2.998.084-2.998s-1.84-.324-3.011-.081z" opacity=".25"/>
    <path fill="#000" d="M476.73 192.764c-.753.486-5.855.973-5.855.973l-.167-.892c1.505-.81 4.433-2.592 5.938-4.78.084 2.836.084 4.699.084 4.699z" opacity=".25"/>
    <path fill="#4C3146" d="M477.058 194.871l-.669.081-4.517.648-.334.081a1.283 1.283 0 0 1-1.422-.972v-.081c-.084-.648.334-1.215 1.003-1.377l5.521-.811a1.285 1.285 0 0 1 1.422.973v.081c.083.648-.335 1.296-1.004 1.377z"/>
    <path fill="#000" d="M465.35 190.577l-.669 4.699s-6.274.324-6.274-1.134c0-.162 0-.81.084-1.864 1.422-.081 4.851-.486 6.859-1.701z" opacity=".25"/>
    <path fill="#4C3146" d="M465.188 195.6v.081a1.209 1.209 0 0 1-1.338 1.054l-4.767-.405-.753-.081c-.669-.081-1.171-.649-1.088-1.297v-.081a1.21 1.21 0 0 1 1.339-1.053l5.52.486c.669.081 1.171.648 1.087 1.296z"/>
    <path fill="#000" d="M475.97 164.487c-7.694.972-12.879-2.43-14.635-3.808 3.178.486 12.126 1.215 14.301.243.167.81.251 2.026.334 3.565zM460.085 154.197c.585-2.674.334-3.403.334-3.403s-1.003 2.431-1.589 2.512c-.251 0-1.254-.892-2.258-1.945.836-.243 2.091-.648 2.76-1.377 1.004-1.134.92-5.996 1.338-5.996.419 0 1.339 8.994-1.254 12.477.251-.729.502-1.539.669-2.268zM478.483 148.93c-1.171 2.106-2.677 3.16-2.677 3.16s-1.338-6.968-1.756-7.616c-.335-.567.167-1.054.92 1.296.586 1.863 2.091 3.241 3.429 2.917.084 0 .084.081.084.243z" opacity=".25"/>
    <path fill="#000" d="M476.057 160.679c-.083.081-.251.162-.418.243-1.254.567-4.433.567-7.694.405 2.174-.243 7.443-1.377 8.363-5.833.251 2.025.418 4.456-.251 5.185zM469.785 137.263c-.251.324-.753.486-1.59.324-1.589-.324-3.68.324-4.683.162-.586-.081-.921-.243-1.171-.405 2.258-.81 4.182-.729 4.182-.729 1.087 0 2.174.243 3.262.648z" opacity=".25"/>
    <path fill="#2F1829" d="M458.665 153.306c-.585.729-1.254 1.62-2.007 2.511-1.589-.891-2.844-2.511-3.597-3.483.67-1.135 1.339-2.512 1.673-3.16.418.648 1.088 1.458 1.84 2.187.837.973 1.673 1.783 2.091 1.945z"/>
    <path fill="#000" d="M458.659 153.306c-.585.729-1.254 1.62-2.007 2.511-.251.325-.586.649-.837.973.084-2.836-.92-5.348-1.505-6.644.167-.405.334-.729.502-.972.418.648 1.087 1.458 1.84 2.187.753.973 1.589 1.783 2.007 1.945z" opacity=".25"/>
    <path fill="#fff" d="M453.643 151.362c0 .81-.837 2.025-1.004 2.349-.251.405-.084 2.269-.335 2.026-.251-.243-.334-1.135-.669-1.459-.334-.243-4.182-1.215-4.851-1.377 1.924.405 4.768 1.296 5.186 1.053.251-.081.669-.81 1.171-1.701.167-.162.334-.486.502-.891z" opacity=".25"/>
    <path fill="#000" d="M469.534 134.022c-.418.729-1.087 1.459-1.673 1.945-.502.324-.92.567-1.254.567-1.088-.162-2.509-1.945-2.593-2.269 0-.324 1.171-.486 1.087-1.458-.167-.972-.836-1.134-1.254-.972-.502.162-1.088 1.215-1.088 2.187-.334-.081-.919-1.215-2.09-1.944-.335-.162-.669-.324-1.088-.405.586-.081 1.339-.081 1.757.081 1.003.405 1.087.81 1.087.81s.167-1.459 1.84-1.783c1.422-.243 2.509 3.484 5.269 3.241z" opacity=".25"/>
    <path fill="#1F3247" d="M464.68 202.811h-10.956s-.083-.324-.083-.729c0-.567.167-1.296 1.087-1.62.334-.162.669-.243 1.003-.405 1.339-.649 2.844-1.459 3.095-1.945 0 0 .083 0 .251.081.251.081.752.324 1.338.486.251.081.502.081.753.081.585 0 1.839-.324 2.592-.405.335-.081.586-.081.669.081.167.243.335 2.431.418 3.646-.251.405-.167.729-.167.729z"/>
    <path fill="url(#j)" d="M463.85 196.735c-.084.486-.168 1.053-.335 1.539-.585.081-1.338.243-1.924.324-.251 0-.418.081-.585.081-.669 0-1.589-.405-2.008-.567 0-.567.084-1.296.084-1.863l1.924.162 2.844.324z"/>
    <path fill="#1F3247" d="M477.818 202.811h-6.608s-.083-.324-.083-.729c0-.324.083-.648.251-1.053.501-1.053.25-2.674.418-2.998h.334c.92-.081 3.513-.324 4.266-.324h.167c.418.162.92 2.917 1.171 4.375.084.324.084.567.084.729z"/>
    <path fill="#000" d="M464.596 202.001c0 .486.084.728.084.728h-10.956s-.083-.323-.083-.728h10.955zM477.818 202.81h-6.608s-.083-.323-.083-.728h6.607c.084.324.084.567.084.728z" opacity=".25"/>
    <path fill="#122230" d="M460.25 198.598c-1.004.648-2.927 1.783-3.597 1.783-.501 0-.836-.243-1.087-.405 1.338-.649 2.844-1.459 3.095-1.945 0 0 .083 0 .251.081.334.162.836.324 1.338.486z"/>
    <path fill="#000" d="M463.851 196.735c-.083.486-.167 1.053-.334 1.539-.586.081-1.339.243-1.924.324l-.669-2.187 2.927.324zM476.395 194.952v2.674c-.502-.081-1.673 0-2.676.162l-.753-2.269 3.429-.567z" opacity=".25"/>
    <path fill="url(#k)" d="M101.63 151.686s-2.007-7.049 2.259-11.506c4.265-4.456 15.89-11.1 16.141-19.364.251-8.265 6.607-18.636 15.053-20.58 8.447-1.864 14.887-20.824 22.498-24.55 7.61-3.809 18.399-4.133 21.493-8.913 3.095-4.78 39.558 63.846 37.802 70.896-1.84 7.049-34.289-2.026-42.987.081-8.698 2.106-12.796 7.13-22.497 8.426-9.702 1.296-24.086-.972-29.104 1.783-5.018 2.754-14.301 6.806-18.901 5.185-1.924-.81-1.757-1.458-1.757-1.458z"/>
    <path fill="#2F1829" d="M103.39 152.982l-2.091-2.026c-.334-.324-.836-.162-.92.243l-.502 1.783-4.432 4.294a.481.481 0 0 0 0 .648l.67.648c.166.162.5.162.668 0l4.433-4.294 1.84-.486c.501 0 .669-.486.334-.81z"/>
    <path fill="url(#l)" d="M81.975 131.673s-.084.81-.167 1.782c-.168 1.296-.502 2.998-1.088 3.808 0 0 0 .081-.083.081-.92 1.134-2.593.891-3.43-.567.502-.648.753-1.377.419-1.702-.67-.648-.502-2.511.501-2.268 1.004.243 1.172 2.836 1.506 2.755.251.081 1.757-2.269 2.342-3.889z"/>
    <path fill="#2F1829" d="M82.312 130.538c0 .243-.083.648-.25 1.135-.084.243-.251.567-.335.81-.67 1.458-1.756 3.079-2.007 3.16-.335.081-.502-2.593-1.506-2.755-1.003-.243-1.17 1.62-.501 2.268.334.325.083 1.054-.419 1.702-.585.648-1.421 1.134-2.341.567-1.673-.972-2.008-7.292-2.008-7.778 0 0 0-.405.084-.972.167-.81.753-1.783 2.175-2.431 2.509-1.053 7.108-.81 7.108 4.294z"/>
    <path fill="#FF655C" d="M95.44 156.79c0 .081 0 .162-.084.162-.084.324-.167.486-.251.486-.084 0-.585 0-1.338-.081-1.004-.162-2.51-.324-3.847-.567-1.673-.324-3.178-.648-3.68-.892-.418-.243-1.087-1.053-1.756-2.025a7.082 7.082 0 0 1-.502-.81c-.836-1.297-1.505-2.593-1.673-2.917 0-.081-.083-.081-.083-.081v.081c0 .324-.168 1.62-.586 2.917-.084.243-.167.567-.334.81-.084.243-.251.486-.418.648-.419.648-.335 1.458-.084 2.269 0 .081.084.162.084.324l.25.486c.168.324.251.567.419.81.418.81.752 1.54.669 1.945 0 .081-.084.081-.168.162l-.167.162c-.25.162-.753.405-1.338.648-3.262 1.296-10.621 2.836-13.8 0l-.167-.162c-.167-.243-.25-.405-.25-.648 0-.324.167-.567.418-.972.334-.568.92-1.135 1.338-2.026.167-.243.25-.486.334-.81.168-.405.335-.892.335-1.459.083-.486.083-1.053.167-1.539 0-.243.084-.567.084-.81.083-1.054.083-2.026.083-2.917v-.811c0-1.053-.083-2.025-.083-2.916v-.811c0-1.053 0-2.025.083-2.916 0-.244.084-.568.084-.811.25-1.215.753-2.187 1.673-2.917l.083-.081c.335-.243.67-.486.92-.729.335-.243.67-.405.92-.648 2.007-1.134 3.01-.972 3.01-.972s.586 0 1.506.162 2.008.405 3.178.81c.168.081.251.081.419.162.334.162.585.243.92.405.167.081.418.243.585.324.25.162.502.324.669.486.585.406 1.004.892 1.422 1.459.25.405.585.972.836 1.458.167.243.25.486.418.811.418.972.92 1.944 1.338 2.916.084.243.251.568.335.811.418 1.053.836 2.106 1.087 2.916.084.244.167.568.25.811.335.891.503 1.458.586 1.701.084.324.837.648 1.757.972.334.082.585.163.92.244.669.162 1.254.324 1.84.486.418.081.836.243 1.17.324.335.081.502.162.586.243 0 0 0 .081.083.162 0 .729-.083 1.944-.25 2.755z"/>
    <g opacity=".25">
        <path fill="#fff" d="M81.808 138.235c.25.162.501.243.752.405H71.437a2.54 2.54 0 0 1 .586-.405h9.785zm0-.162h-9.953c-.334.243-.585.405-.92.729l-.083.081h12.294a7.26 7.26 0 0 0-1.338-.81zM85.156 142.043c.084.162.167.243.25.405h-16.14c0-.162.083-.324.083-.405h15.807zm.167-.243h-16.14c-.085.243-.085.486-.085.81h16.643a3.739 3.739 0 0 1-.418-.81zM86.918 145.77c.083.162.083.243.167.405H69.27v-.405h17.647zm.083-.162h-17.98v.81h18.315c-.084-.324-.251-.567-.335-.81zM88.34 149.498l.084.324.084.162H69.439v-.405H88.34v-.081zm.084-.162H69.188v.81h19.57c-.083-.243-.25-.567-.334-.81zM81.398 153.225c-.084.162-.084.324-.167.405H69.27v-.405h12.127zm.25-.162H69.105c0 .243 0 .486-.084.81h12.294c.167-.243.251-.567.335-.81zM91.923 153.225c.502.162 1.004.243 1.422.405l.167.081h-8.865c-.084-.162-.167-.243-.25-.405h7.526v-.081zm0-.162h-7.945c.167.243.335.567.502.81h10.37c-.334-.081-.669-.243-1.17-.324-.419-.162-1.088-.324-1.757-.486zM80.807 157.033s0 .081.084.081v.081c0 .081.084.162.084.243H68.513c.084-.162.167-.243.167-.405h12.127zm.084-.243H68.513c-.083.324-.25.567-.334.81h13.046l-.25-.486c0-.081 0-.162-.084-.324zM95.188 157.033c-.083.243-.167.324-.167.324h-.084c-.167 0-.585 0-1.17-.081a68 68 0 0 0-1.59-.243h3.011zm.251-.243h-5.52c1.338.243 2.844.486 3.847.567a8.207 8.207 0 0 0 1.171.081h.168c.083 0 .167-.243.25-.486.084 0 .084-.081.084-.162zM81.555 160.76c-.25.162-.585.243-.92.405H67.003l-.084-.081-.167.162.084-.162c-.084-.081-.168-.162-.168-.324h14.887zm.585-.162H66.419c0 .243.083.405.25.648l.168.163h13.8c.585-.244 1.003-.487 1.337-.649.084-.081.084-.162.168-.162z" opacity=".25"/>
    </g>
    <path fill="#2F1829" d="M83.318 195.682c-.084.162-.084.324-.168.405-.92 1.539-3.428 1.701-4.348 1.377-.084 0-.251-.081-.251-.162-.586-.486-1.004-4.375-4.015-26.414v.162c-.083 3.16-.752 8.67-1.421 13.774-.753 5.672-1.59 10.777-1.757 11.587 0 .243-.167.486-.334.729-.837.891-2.927 1.134-4.182-.324-.084-.081-.167-.243-.25-.405.501-4.051.752-16.529-.084-23.983a43.326 43.326 0 0 1-.251-7.13c.083-2.026.334-3.484.501-4.295 3.178 3.079 10.873 1.459 14.134.081.502-.243.837-.405 1.088-.567.836 3.727.501 14.179 1.338 35.165z"/>
    <path fill="#000" d="M80.976 137.668c-5.353.162-6.858 8.183-6.858 8.183l-1.255-8.426c2.008-1.134 3.011-.972 3.011-.972s2.593.162 5.102 1.215z" opacity=".25"/>
    <path fill="#1F3247" d="M89.42 202.73H78.797c-.084-.324-.084-.729-.084-1.215v-.567c0-1.215 0-2.674.084-3.403.25.081.585.162 1.003.081.837 0 1.84-.243 2.593-.729.25-.162.502-.486.67-.729.668 1.377 2.006 2.268 3.26 2.917 1.088.567 2.175.972 2.593 1.296.418.324.586.729.586 1.134.167.567-.084 1.215-.084 1.215zM71.104 201.515c0 .81-.083 1.215-.083 1.215h-6.106l.25-1.215a27.387 27.387 0 0 1 1.59-4.537c.418.486.92.729 1.422.891.585.162 1.17.162 1.756 0 .418-.162.837-.324 1.088-.648.167 1.701.083 3.241.083 4.294z"/>
    <path fill="url(#m)" d="M101.132 155.413c-.083.648-2.509 2.673-3.262 2.511-.083 0-.25-.081-.334-.162-.502-.243-1.088-.729-2.091-.81.167-.81.25-2.269.167-2.755l.502-.243c.836-.324 1.924-.81 2.342-.729.753.243 2.844 1.539 2.676 2.188z"/>
    <path fill="#000" d="M82.31 160.355c0 .081-.167.243-.334.324-1.924 1.296-11.625 4.051-15.221.486-.502-.486-.251-.972.167-1.539.502.405 1.422.81 3.094 1.134 3.262.486 8.95-.324 11.709-2.268.335.81.669 1.458.585 1.863zM95.441 157.033c-.084.324-.167.486-.25.486-.084 0-.586 0-1.339-.081a7.262 7.262 0 0 0 0-3.889c.92.243 1.59.405 1.673.567 0 0 0 .081.083.162.084.487 0 1.945-.167 2.755zM81.055 157.113c-1.254-1.134-.669-2.107 0-4.375.67-2.35-.669-3.322-.92-5.915-.25-2.592.084-4.051 1.673-5.752-2.007 5.023.502 8.993.502 8.993s-.084 2.755-1.338 4.537c-.502.649-.335 1.621.084 2.512zM81.645 132.564c-.67 1.458-1.757 3.079-2.007 3.16-.335.081-.502-2.593-1.506-2.755-1.003-.243-1.17 1.62-.502 2.268.335.325.084 1.054-.418 1.702-.585.648-1.422 1.134-2.341.567-1.673-.972-2.008-7.292-2.008-7.778 0 0 0-.405.084-.972.836-.081 2.76.081 3.178 1.701.418 1.621.418 2.35.418 2.674.084-.486.502-1.864 2.091-1.539.92.081 2.007.729 3.01.972z" opacity=".25"/>
    <path fill="#2F1829" d="M74.7 130.295s-.668-1.377-2.927-.972c-2.174.405-3.178 3.16-2.174 7.616 0-3.97.585-4.861.585-4.861s-.92 2.431.251 7.859c1.171 5.429 1.924 10.695-1.087 12.964 5.938-3.241 6.356-7.13 5.938-11.83-.25-4.699.837-8.831-.585-10.776z"/>
    <path fill="#000" d="M78.3 135.075c-.085.325 1.086 1.864 2.341 2.188 0 0 0 .081-.084.081 0 .081-.083.081-.083.162-1.171-.405-2.342-.729-3.179-.81.419-.567.586-1.215.251-1.54-.669-.648-.502-2.511.502-2.268 1.004.243 1.171 2.836 1.506 2.755.25-.081 1.756-2.35 2.342-3.97 0 0-.084.81-.168 1.782-.334.567-1.087 1.782-1.672 2.269-.753.648-1.088-.162-1.255-.649-.084-.405-.418-.405-.502 0z" opacity=".25"/>
    <path stroke="#fff" stroke-miterlimit="10" stroke-width=".464" d="M67.922 165.379s-.167 2.997.251 3.808c.418.81 1.59 1.377 1.59 1.377s1.505-.648 1.923-1.539c.418-1.783.335-3.97.335-3.97s-3.011-.649-4.099.324z" opacity=".25"/>
    <path stroke="#fff" stroke-linecap="round" stroke-linejoin="round" stroke-miterlimit="10" stroke-width=".464" d="M81.06 162.948s.167 2.512-2.091 3.727M80.468 165.136l1.84 29.978" opacity=".25"/>
    <path fill="#000" d="M74.448 171.131c-.083 3.16-.753 8.67-1.422 13.855-.083-5.996-1.004-13.369-.669-14.584.92.81 2.091.729 2.091.729z" opacity=".25"/>
    <path stroke="#fff" stroke-linecap="round" stroke-linejoin="round" stroke-miterlimit="10" stroke-width=".464" d="M72.862 171.942l-2.593 24.469" opacity=".25"/>
    <path fill="#000" d="M80.803 161.328c-1.505 1.458-6.189 5.023-14.636 4.213.084-2.026.335-3.484.502-4.294 3.178 3.078 10.956 1.377 14.134.081zM65.25 201.515h5.854c0 .81-.083 1.216-.083 1.216h-6.106c.084-.406.167-.811.334-1.216zM89.42 202.731H78.797c-.084-.325-.084-.73-.084-1.216h10.872c.084.567-.167 1.216-.167 1.216z" opacity=".25"/>
    <path fill="#fff" d="M86.414 199.003c-1.924.892-3.262-.972-3.931-2.187.25-.162.502-.486.67-.729.668 1.377 2.006 2.268 3.261 2.916z" opacity=".25"/>
    <path fill="#000" d="M69.929 197.869c-.168 2.755-1.171 2.836-1.673 2.512-.502-.243-.167-2.026 0-2.593.502.243 1.087.243 1.673.081zM78.714 200.948c0-1.215 0-2.674.084-3.403.25.081.585.162 1.003.081.167.891.25 2.917-1.087 3.322zM95.445 157.033c.167-.81.25-2.268.167-2.755l.502-.243c.502.73 1.422 2.107 1.505 3.727-.585-.243-1.087-.729-2.174-.729z" opacity=".25"/>
    <path fill="#fff" d="M91.013 152.819c-1.672.162-2.843 1.863-2.927 1.539-.167-.405.753-1.215.67-1.782-.084-.567-2.677-6.968-4.099-10.128-.836-1.944-1.672-3.241-2.174-4.051.25.162.502.324.669.486.585.405 1.004.892 1.422 1.459.25.405.585.972.836 1.458.167.243.251.486.418.81.418.973.92 1.945 1.338 2.917.084.243.251.567.335.81.418 1.054.836 2.107 1.087 2.917.084.243.167.567.251.81.335.891.502 1.459.585 1.702 0 .405.67.729 1.59 1.053z" opacity=".25"/>
    <path fill="#2F1829" d="M495.202 204.351c-.585-.405-17.981-45.94 2.091-71.868-2.76 18.311-1.254 33.301-1.254 33.301l-2.593 2.512 2.927.81s1.924 25.441 2.927 28.358c-2.174-19.04 3.178-30.141 3.178-30.141s-.92 13.531.837 18.474l-1.422 1.782 1.422-.243s-1.004 8.184 0 10.614c0 0 11.206-32.409 5.937-46.669 6.942 10.371 4.935 27.791 4.935 27.791l-1.756.648 1.087.81s-2.927 18.555-9.534 23.74"/>
    <path stroke="#1F3247" stroke-miterlimit="10" stroke-width=".927" d="M437.577 203.581s-1.673-10.208 6.942-17.257c-.083 8.264-2.425 15.313-6.942 17.257z"/>
    <path fill="#fff" d="M359.049 179.234c2.091.486 4.182 1.215 6.189 2.106 2.007.891 3.931 1.864 5.77 2.998 1.84 1.215 3.513 2.593 5.018 4.213a19.86 19.86 0 0 1 3.429 5.509c0 .081 0 .243-.083.243-.084 0-.251 0-.251-.081-.753-1.944-1.84-3.808-3.262-5.428s-3.094-2.998-4.851-4.213c-1.839-1.215-3.763-2.188-5.77-3.079-2.007-.972-4.098-1.782-6.189-2.268zM409.237 201.029c2.174-3.079 4.6-5.996 7.109-8.75a91.524 91.524 0 0 1 8.112-7.86c2.927-2.43 6.022-4.618 9.367-6.482 3.345-1.782 6.941-3.16 10.705-3.808-3.764.648-7.36 2.026-10.705 3.889-3.345 1.864-6.356 4.052-9.283 6.482-2.844 2.431-5.52 5.105-8.029 7.86a90.406 90.406 0 0 0-7.025 8.75c-.084.081-.167.081-.251.081-.084.081-.084-.081 0-.162z" opacity=".25"/>
    <path fill="#fff" d="M449.037 202.81h-41.565v-5.671s.585-1.377 2.258-2.188c.502-.243 1.171-.486 1.84-.567 3.094-.405 4.182 2.107 4.182 2.107s.752-2.188 3.847-2.431c3.01-.243 4.85 4.294 4.934 4.618 0-.243-.251-2.754 2.091-2.916 2.425-.162 2.425 2.916 2.425 2.916s1.924-2.025 4.433-1.944c2.509.162 3.01 2.512 3.01 2.512s1.422-2.026 4.433-1.297c3.094.648 3.512 4.861 8.112 4.861z"/>
    <path fill="#F5FBFF" d="M436.077 202.81h-28.519v-5.671s.585-1.377 2.258-2.188c1.255.081 3.429.487 4.349 2.107 1.338 2.35 1.422 4.537 1.422 4.537s2.76-3.889 5.018-3.241c2.258.648 3.429 3.241 3.429 3.241s2.341-2.431 4.349-1.62c.919.486 4.432 1.701 7.694 2.835z" opacity=".25"/>
    <path fill="#2F1829" d="M354.117 204.35c-.167-.081-5.019-12.882.585-20.174-.752 5.185-.334 9.398-.334 9.398l-.753.729.836.243s.586 7.13.837 8.021c-.586-5.347.92-8.507.92-8.507s-.251 3.808.251 5.186l-.418.486.418-.081s-.251 2.268 0 2.997c0 0 3.178-9.074 1.673-13.125 1.923 2.917 1.422 7.778 1.422 7.778l-.502.162.334.243s-.836 5.186-2.676 6.644"/>
    <path stroke="#1F3247" stroke-miterlimit="10" stroke-width=".927" d="M145.454 202.082s-10.37-2.107-16.81-9.641c11.039 1.134 15.806 4.942 16.81 9.641z"/>
    <path fill="#fff" d="M177.069 200.381c-.92-3.646-1.505-7.292-2.007-10.938-.418-3.727-.669-7.373-.586-11.1.084-3.728.419-7.455 1.255-11.02.836-3.646 2.175-7.13 4.266-10.29-2.008 3.16-3.346 6.644-4.182 10.29-.837 3.646-1.171 7.292-1.171 11.02-.084 3.727.251 7.373.669 11.1.502 3.646 1.171 7.292 2.091 10.938 0 .081 0 .243-.167.243 0-.081-.168-.081-.168-.243z" opacity=".25"/>
    <path fill="#F5FBFF" d="M211.924 203.062h-10.371l-45.161.081h-13.381s1.087-3.484 6.356-5.104c5.269-1.621 6.774 1.701 6.774 1.701s-.251-6.644 5.938-8.912c6.189-2.269 8.948 5.347 8.948 5.347s1.255-3.727 7.862-4.051c6.607-.324 5.938 4.699 5.938 4.699s3.763-4.051 10.538-3.159c6.774.891 7.443 6.157 7.443 6.157s5.938-1.782 9.116 3.241z"/>
    <path fill="#F5FBFF" d="M201.823 202.73l-45.162.081c2.342-2.025 6.189-4.618 10.203-4.699 6.607-.081 7.695 2.269 7.695 2.269s4.098-4.213 7.276-3.484c3.261.729 3.345 4.051 3.345 4.051s10.37-2.35 16.643 1.782z" opacity=".25"/>
    <defs>
        <filter id="d" width="102.269" height="132.386" x="113.103" y="76.355" color-interpolation-filters="sRGB" filterUnits="userSpaceOnUse">
            <feFlood flood-opacity="0" result="BackgroundImageFix"/>
            <feColorMatrix in="SourceAlpha" values="0 0 0 0 0 0 0 0 0 0 0 0 0 0 0 0 0 0 127 0"/>
            <feOffset dy="2"/>
            <feGaussianBlur stdDeviation="2"/>
            <feColorMatrix values="0 0 0 0 0 0 0 0 0 0.43245 0 0 0 0 0.704167 0 0 0 0.1 0"/>
            <feBlend in2="BackgroundImageFix" result="effect1_dropShadow"/>
            <feBlend in="SourceGraphic" in2="effect1_dropShadow" result="shape"/>
        </filter>
        <linearGradient id="a" x1="273.182" x2="275.906" y1="119.197" y2="195.509" gradientUnits="userSpaceOnUse">
            <stop stop-color="#32A5EE"/>
            <stop offset="1" stop-color="#006EB4" stop-opacity=".1"/>
        </linearGradient>
        <linearGradient id="b" x1="287.715" x2="288.234" y1="51.34" y2="70.082" gradientUnits="userSpaceOnUse">
            <stop stop-color="#fff"/>
            <stop offset="1" stop-color="#fff" stop-opacity="0"/>
        </linearGradient>
        <linearGradient id="c" x1="108.575" x2="110.131" y1="20.528" y2="61.764" gradientUnits="userSpaceOnUse">
            <stop stop-color="#fff"/>
            <stop offset="1" stop-color="#fff" stop-opacity="0"/>
        </linearGradient>
        <linearGradient id="e" x1="480.933" x2="351.609" y1="191.017" y2="97.743" gradientUnits="userSpaceOnUse">
            <stop stop-color="#fff"/>
            <stop offset="1" stop-color="#fff" stop-opacity="0"/>
        </linearGradient>
        <linearGradient id="f" x1="474.201" x2="474.093" y1="199.296" y2="193.049" gradientUnits="userSpaceOnUse">
            <stop stop-color="#FECBA6"/>
            <stop offset="1" stop-color="#D17878"/>
        </linearGradient>
        <linearGradient id="g" x1="442.793" x2="462.716" y1="161.67" y2="142.119" gradientUnits="userSpaceOnUse">
            <stop stop-color="#FECBA6"/>
            <stop offset="1" stop-color="#D17878"/>
        </linearGradient>
        <linearGradient id="h" x1="475.382" x2="475.641" y1="169.03" y2="147.433" gradientUnits="userSpaceOnUse">
            <stop stop-color="#FECBA6"/>
            <stop offset="1" stop-color="#D17878"/>
        </linearGradient>
        <linearGradient id="i" x1="461.713" x2="466.467" y1="134.543" y2="135.61" gradientUnits="userSpaceOnUse">
            <stop stop-color="#FECBA6"/>
            <stop offset="1" stop-color="#D17878"/>
        </linearGradient>
        <linearGradient id="j" x1="460.134" x2="462.04" y1="202.696" y2="193.256" gradientUnits="userSpaceOnUse">
            <stop stop-color="#FECBA6"/>
            <stop offset="1" stop-color="#D17878"/>
        </linearGradient>
        <linearGradient id="k" x1="62.948" x2="192.273" y1="191.017" y2="97.743" gradientUnits="userSpaceOnUse">
            <stop stop-color="#fff"/>
            <stop offset="1" stop-color="#fff" stop-opacity="0"/>
        </linearGradient>
        <linearGradient id="l" x1="79.791" x2="78.275" y1="132.109" y2="140.737" gradientUnits="userSpaceOnUse">
            <stop stop-color="#FECBA6"/>
            <stop offset="1" stop-color="#D17878"/>
        </linearGradient>
        <linearGradient id="m" x1="103.698" x2="94.415" y1="154.085" y2="156.818" gradientUnits="userSpaceOnUse">
            <stop stop-color="#FECBA6"/>
            <stop offset="1" stop-color="#D17878"/>
        </linearGradient>
    </defs>
</svg>
