<svg xmlns="http://www.w3.org/2000/svg" width="25" height="25" viewBox="0 0 25 25">
    <g style="opacity:.499">
        <path d="M7.343 20.313h-3.75a.782.782 0 0 1-.781-.782v-6.718H.781A.782.782 0 0 1 0 12.031v-3.75A.782.782 0 0 1 .781 7.5h2.031V5.468A5.47 5.47 0 0 1 8.281 0h2.813a.782.782 0 0 1 .782.781v3.75a.783.783 0 0 1-.782.782H8.281a.154.154 0 0 0-.156.156V7.5h2.968a.781.781 0 0 1 .758.97l-.937 3.75a.781.781 0 0 1-.758.593H8.125v6.718a.783.783 0 0 1-.782.782zm-5.78-11.25v2.187h2.03a.782.782 0 0 1 .782.781v6.719h2.187v-6.719a.782.782 0 0 1 .781-.781h2.2l.547-2.187H7.343a.782.782 0 0 1-.781-.782V5.468A1.719 1.719 0 0 1 8.281 3.75h2.032V1.563H8.281a3.905 3.905 0 0 0-3.906 3.905v2.813a.783.783 0 0 1-.782.782z" transform="translate(6.51 2.344)" style="fill:#1a1a1a" data-name="Facebook"/>
    </g>
</svg>
