<svg id="g10" xmlns="http://www.w3.org/2000/svg" width="142.147" height="101.776" viewBox="0 0 142.147 101.776">
    <defs>
        <clipPath id="clip-path">
            <path id="path78" class="cls-1" d="M76.384-410.086a17.379 17.379 0 0 1-15.222-8.79l-.013-.009-.118-.219-23.852-38.537-.08.044-12-19.561-4.3-6.95-.012-.023c-.063-.112-.121-.225-.18-.338l-.047-.091L4.278-511.1h41.214l.335.538c.239.384 24.037 38.613 35.862 57.656.051.082 5.533 8.626 14.1 8.626 4.106 0 8.339-1.945 12.581-5.782l5.982-5.41-22.506 36.365a17.482 17.482 0 0 1-15.462 9.021z" transform="translate(-4.278 511.1)"/>
        </clipPath>
        <clipPath id="clip-path-2">
            <path id="path94" class="cls-1" d="M402.456-514.769A24.878 24.878 0 0 0 381.3-502.98l-14.334 23.169.011.006c-2.794 4.488-5.7 9.154-8.485 13.638l4.869 7.836c.051.081 5.221 8.1 13.139 8.1 3.814 0 7.789-1.846 11.815-5.487l5.862-5.3L411.8-489.5c.266-.476.5-.961.719-1.451l14.612-23.82z" transform="translate(-358.491 514.769)"/>
        </clipPath>
        <linearGradient id="linear-gradient" x1=".5" x2=".5" y2="1" gradientUnits="objectBoundingBox">
            <stop offset="0" stop-color="#29abe2"/>
            <stop offset="1" stop-color="#23dff3"/>
        </linearGradient>
        <style>
            .cls-1{fill:url(#linear-gradient)}
        </style>
    </defs>
    <g id="g12">
        <g id="g74" transform="translate(0 .761)">
            <g id="g76" style="clip-path:url(#clip-path)">
                <path id="path88" class="cls-1" d="M76.384-410.086a17.379 17.379 0 0 1-15.222-8.79l-.013-.009-.118-.219-23.852-38.537-.08.044-12-19.561-4.3-6.95-.012-.023c-.063-.112-.121-.225-.18-.338l-.047-.091L4.278-511.1h41.214l.335.538c.239.384 24.037 38.613 35.862 57.656.051.082 5.533 8.626 14.1 8.626 4.106 0 8.339-1.945 12.581-5.782l5.982-5.41-22.506 36.365a17.482 17.482 0 0 1-15.462 9.021" transform="translate(-4.278 511.1)"/>
            </g>
        </g>
        <g id="g90" transform="translate(73.505)">
            <g id="g92" style="clip-path:url(#clip-path-2)">
                <path id="path104" class="cls-1" d="M402.456-514.769A24.878 24.878 0 0 0 381.3-502.98l-14.334 23.169.011.006c-2.794 4.488-5.7 9.154-8.485 13.638l4.869 7.836c.051.081 5.221 8.1 13.139 8.1 3.814 0 7.789-1.846 11.815-5.487l5.862-5.3L411.8-489.5c.266-.476.5-.961.719-1.451l14.612-23.82h-24.675" transform="translate(-358.491 514.769)"/>
            </g>
        </g>
    </g>
</svg>
