<svg xmlns="http://www.w3.org/2000/svg" width="25" height="25" viewBox="0 0 25 25">
    <g style="opacity:.499">
        <path d="M10.156 20.313a10.156 10.156 0 1 1 6.916-17.58.78.78 0 0 1 .021 1.124L14.44 6.508a.781.781 0 0 1-1.072.031 4.842 4.842 0 1 0 .832 6.274h-4.044a.782.782 0 0 1-.781-.782v-3.75a.782.782 0 0 1 .781-.781h9.193a.782.782 0 0 1 .766.629 10.625 10.625 0 0 1 .2 2.027 10.168 10.168 0 0 1-10.159 10.157zm0-18.75a8.594 8.594 0 1 0 8.594 8.593 9.031 9.031 0 0 0-.068-1.093h-7.744v2.187h4.517a.781.781 0 0 1 .736 1.042 6.4 6.4 0 1 1-6.035-8.542 6.346 6.346 0 0 1 3.67 1.163l1.562-1.562a8.493 8.493 0 0 0-5.232-1.788z" style="fill:#1a1a1a" transform="translate(2.344 2.344)" data-name="Google-alt"/>
    </g>
</svg>
