<svg xmlns="http://www.w3.org/2000/svg" width="25" height="25" viewBox="0 0 25 25">
    <defs>
        <style>
            .cls-2{fill:#1a1a1a}
        </style>
    </defs>
    <g id="Instagram" style="opacity:.499">
        <g id="Instagram-2" data-name="Instagram" transform="translate(2.665 2.648)">
            <path id="Path" class="cls-2" d="M0 1.042a1.042 1.042 0 1 1 1.042 1.041A1.042 1.042 0 0 1 0 1.042z" transform="translate(14.002 3.602)"/>
            <path id="Shape" class="cls-2" d="M4.948 9.9A4.948 4.948 0 1 1 9.9 4.948 4.954 4.954 0 0 1 4.948 9.9zm0-8.333a3.385 3.385 0 1 0 3.385 3.381 3.389 3.389 0 0 0-3.385-3.385z" transform="translate(4.887 4.904)"/>
            <path id="Shape-2" data-name="Shape" class="cls-2" d="M9.835 19.7a49.549 49.549 0 0 1-5.477-.3 4.611 4.611 0 0 1-2.711-1.294 4.545 4.545 0 0 1-1.324-2.7 47.959 47.959 0 0 1 0-11.114A4.545 4.545 0 0 1 1.647 1.6 4.611 4.611 0 0 1 4.358.3a49.65 49.65 0 0 1 10.955 0 4.609 4.609 0 0 1 2.71 1.3 4.546 4.546 0 0 1 1.324 2.7 47.855 47.855 0 0 1 0 11.114 4.546 4.546 0 0 1-1.324 2.7 4.609 4.609 0 0 1-2.71 1.294 49.568 49.568 0 0 1-5.478.292zm0-18.141a47.913 47.913 0 0 0-5.3.293 3.023 3.023 0 0 0-2.659 2.625 46.277 46.277 0 0 0 0 10.75 3.024 3.024 0 0 0 2.656 2.621 48.029 48.029 0 0 0 5.3.293 48.029 48.029 0 0 0 5.3-.293 3.026 3.026 0 0 0 2.668-2.621 46.381 46.381 0 0 0 0-10.75 3.024 3.024 0 0 0-2.656-2.621 47.913 47.913 0 0 0-5.309-.294z"/>
        </g>
    </g>
</svg>
