<svg xmlns="http://www.w3.org/2000/svg" xmlns:xlink="http://www.w3.org/1999/xlink" width="446" height="351.942" viewBox="0 0 446 351.942">
    <defs>
        <linearGradient id="linear-gradient" x1="3.152" y1=".467" x2="-.172" y2=".515" gradientUnits="objectBoundingBox">
            <stop offset=".01"/>
            <stop offset="1" stop-opacity="0"/>
        </linearGradient>
        <linearGradient id="linear-gradient-2" x1="2.499" y1="1.742" x2="-.059" y2=".131" xlink:href="#linear-gradient"/>
        <linearGradient id="linear-gradient-3" x1=".498" y1=".11" x2=".507" y2="1.846" xlink:href="#linear-gradient"/>
        <linearGradient id="linear-gradient-4" x1=".663" y1="-1.05" x2=".397" y2="1.481" xlink:href="#linear-gradient"/>
        <linearGradient id="linear-gradient-5" x1=".185" y1=".239" x2=".908" y2=".732" gradientUnits="objectBoundingBox">
            <stop offset=".02" stop-color="#fff" stop-opacity="0"/>
            <stop offset=".58" stop-color="#fff" stop-opacity=".388"/>
            <stop offset="1" stop-color="#fff"/>
        </linearGradient>
        <linearGradient id="linear-gradient-6" x1="1.26" y1=".481" x2="-.302" y2=".521" xlink:href="#linear-gradient-5"/>
        <linearGradient id="linear-gradient-7" x1="1.074" y1="-1.186" x2=".428" y2=".745" xlink:href="#linear-gradient"/>
        <linearGradient id="linear-gradient-8" x1=".69" y1="1.44" x2=".274" y2="-.517" gradientUnits="objectBoundingBox">
            <stop offset=".01"/>
            <stop offset=".09" stop-opacity=".82"/>
            <stop offset="1" stop-opacity="0"/>
        </linearGradient>
        <linearGradient id="linear-gradient-9" x1=".462" y1="-.383" x2=".533" y2="1.403" xlink:href="#linear-gradient"/>
        <linearGradient id="linear-gradient-10" x1=".744" y1="-.276" x2=".279" y2="1.203" xlink:href="#linear-gradient"/>
        <linearGradient id="linear-gradient-11" x1=".747" y1=".258" x2=".545" y2=".476" xlink:href="#linear-gradient"/>
        <linearGradient id="linear-gradient-12" x1=".587" y1=".486" x2="-.01" y2=".583" xlink:href="#linear-gradient"/>
        <linearGradient id="linear-gradient-13" x1=".986" y1=".352" x2=".221" y2=".604" xlink:href="#linear-gradient"/>
        <linearGradient id="linear-gradient-14" x1=".59" y1="-1.291" x2=".477" y2=".951" gradientUnits="objectBoundingBox">
            <stop offset=".02" stop-color="#fff" stop-opacity="0"/>
            <stop offset=".58" stop-color="#fff" stop-opacity=".388"/>
            <stop offset=".68" stop-color="#fff" stop-opacity=".678"/>
            <stop offset="1" stop-color="#fff"/>
        </linearGradient>
        <linearGradient id="linear-gradient-15" x1="1.037" y1="-.78" x2=".526" y2=".435" xlink:href="#linear-gradient-14"/>
        <linearGradient id="linear-gradient-16" x1=".445" y1="1.165" x2=".539" y2="-.341" xlink:href="#linear-gradient"/>
        <linearGradient id="linear-gradient-17" x1=".365" y1=".055" x2=".652" y2=".907" xlink:href="#linear-gradient-14"/>
        <linearGradient id="linear-gradient-18" x1=".815" y1="-.258" x2=".039" y2="1.606" xlink:href="#linear-gradient"/>
        <style>
            .cls-21,.cls-6{fill:#27aee3}.cls-2{fill:#f1af8c}.cls-3{fill:#fff}.cls-21{opacity:.51}
        </style>
    </defs>
    <g id="IT_Support_Monochromatic" data-name="IT Support_Monochromatic">
        <path id="Path_832" data-name="Path 832" d="M397.207 369.367c23.233-8.78 44.239-27.557 48.793-51.987 3.753-20.149-3.984-40.606-13.389-58.835s-20.8-35.843-25.187-55.861c-8.176-37.226 8.692-78.524-7.331-113.1-4.818-10.382-12.346-19.337-20.852-26.965-37.193-33.235-93.041-40.676-140.684-25.981S151.144 85.64 121.886 126c-12.072 16.638-22.564 34.405-35.722 50.176-17.537 21.005-40.3 39.443-47.915 65.683-5.542 18.964-2.195 39.509 4.39 58.166 10.13 28.6 53.776 79.467 74.551 79.369 46.3-.23 135.142 2.041 178.063.4 32.155-1.263 68.294 2.282 101.954-10.427z" transform="translate(-.967 -29.45)" style="opacity:.18;fill:#27aee3"/>
        <path id="Path_833" data-name="Path 833" class="cls-2" d="M184.346 308.393c-1.1 3.128-2.063 6.716-.472 9.625a12.281 12.281 0 0 0 4.181 3.929l15.145 10.294c2.908 1.975 5.992 4.006 9.482 4.269s7.452-1.964 7.748-5.487c.351-4.028-3.874-6.782-5.849-10.316-2.59-4.631-1.163-10.371.187-15.507a283.942 283.942 0 0 0 7.441-39.355c-3.106-1.273-12.149-6.969-15.365-6.025-3.622 1.1-6.892 11.227-8.505 14.53a263.13 263.13 0 0 0-13.993 34.043z" transform="translate(13.416 -7.008)"/>
        <path id="Path_834" data-name="Path 834" class="cls-3" d="M212.009 227.008c-3.929 11.161-8.1 22.355-14.4 32.386a1.591 1.591 0 0 0-.34 1.021 1.569 1.569 0 0 0 .615.856c6.332 5.542 13.17 11.326 21.5 12.522a2.634 2.634 0 0 0 1.624-.143 2.678 2.678 0 0 0 1.01-1.394c5.312-12.3 7.188-25.779 7.013-39.1a160.977 160.977 0 0 0-1.58-19.886c-.219-1.6-.34-8.714-1.734-9.548-2.118-1.251-4.445 3.117-5.367 4.489-3.819 5.715-6.08 12.3-8.341 18.797z" transform="translate(14.804 -12.487)"/>
        <path id="Path_835" data-name="Path 835" d="M228.4 205.54s-4.95 1.855-8.977 15.792-13.643 47.718-13.643 47.718 14.871 7.43 18.591 4.642 4.029-68.152 4.029-68.152z" transform="translate(15.633 -12.288)" style="fill:url(#linear-gradient)"/>
        <path id="Path_836" data-name="Path 836" class="cls-3" d="M270.445 192.466c8.1-.252 16.3.143 24.089 2.338s15.2 6.343 20.314 12.632c5.663 6.958 8.143 16.056 8.714 25s-.615 17.911-1.515 26.844a425.811 425.811 0 0 0-1.668 62.94c.241 5.026 3.117 31.267-.417 34.855-2.195 2.261 2.195 4.522-.933 5.268-25.571 6.146-71.511 3.128-95.721-7.123-6.157-2.612-12.335-6.245-15.364-12.193-3.292-6.442 5.6-31.98 6.662-39.147q4.84-32.8 6.98-65.958c.626-9.778-.1-20.314 1.91-29.917 1.46-6.969 5.948-8.868 12.423-10.58a156.312 156.312 0 0 1 34.526-4.961z" transform="translate(15.773 -13.568)"/>
        <path id="Path_837" data-name="Path 837" d="M289.814 304.044c-.845 4.445-1.953 9.087-4.993 12.445a21.467 21.467 0 0 1-8.582 5.246c-15.255 5.751-32.649 4.851-47.268 12.072a10.2 10.2 0 0 0-2.81 1.833c-2.82 2.788-2.03 7.682.209 10.975 4.972 7.276 14.64 9.317 23.365 10.667 20.918 3.292 42.274 5.981 63.181 2.612a5.794 5.794 0 0 0 3.128-1.2 5.685 5.685 0 0 0 1.328-2.963c4.741-21.049 1.01-42.966.922-64.542 0-12.445 1.1-24.9.252-37.314a75.723 75.723 0 0 0-4.763-22.575c-1.942-4.917-7.627-15.771-11.04-5.7-5.421 16.012-6.98 33.275-8.933 49.968-1.066 9.522-2.21 19.048-3.996 28.476z" transform="translate(17.443 -10.735)" style="fill:url(#linear-gradient-2)"/>
        <rect id="Rectangle_185" data-name="Rectangle 185" class="cls-6" width="195.392" height="18.02" rx="8.21" transform="translate(127.416 331.895)"/>
        <rect id="Rectangle_186" data-name="Rectangle 186" width="195.392" height="18.02" rx="8.21" transform="translate(127.416 331.895)" style="fill:url(#linear-gradient-3)"/>
        <path id="Path_838" data-name="Path 838" class="cls-2" d="M247.41 212.258c-3.633-.582-5.674-4.236-4.05-13.038.176-.977.406-1.921.669-2.864a2.349 2.349 0 0 1 .143-.527c.4-1.361.845-2.722 1.284-4.072a29.708 29.708 0 0 0 1.91-10.13c-.1-2.524-.3-5.147.637-7.474a12.226 12.226 0 0 1 4.072-4.928c3.918-3.018 15.364-8.692 17.559-1.2.977 3.2.263 6.936.22 10.217a30.729 30.729 0 0 0 2.524 13.707c2.392 4.812-16.046 21.735-24.968 20.309z" transform="translate(19.241 -16.305)"/>
        <path id="Path_839" data-name="Path 839" d="M244.65 193.471s20.237-7.682 24.144-19.831l-21.565 7.06s-.516 11.114-2.579 12.771z" transform="translate(19.422 -15.397)" style="fill:url(#linear-gradient-4)"/>
        <path id="Path_840" data-name="Path 840" class="cls-3" d="M294.689 216.7a135.955 135.955 0 0 0 11.062 67.154 5 5 0 0 0 1.35 2.03 5.487 5.487 0 0 0 3.292.812 40.4 40.4 0 0 0 25.088-8.055c2.195-1.657 4.258-3.775 4.445-6.354a10.338 10.338 0 0 0-.8-4.028 446.085 446.085 0 0 0-19.59-47.751c-2.766-5.751-6.475-12.489-13.17-15.024-8.056-3.036-11.118 5.206-11.677 11.216z" transform="translate(24.245 -12.356)"/>
        <path id="Path_841" data-name="Path 841" class="cls-6" d="M259.941 231.568c6-6.332 10.4-13.982 14.75-21.543 2.645-4.609 5.356-9.427 5.729-14.739a2.941 2.941 0 0 0-.274-1.767 3.172 3.172 0 0 0-1.01-.933L270.894 187c-.143 5.059-3.775 9.405-7.924 12.314-4.39 3.117-16.956 6.53-14.267 12.994.67 1.635 10.536 19.992 11.238 19.26z" transform="translate(19.78 -14.095)"/>
        <path id="Path_842" data-name="Path 842" class="cls-6" d="M248.277 209.826a144.71 144.71 0 0 1-8.242 14.168c-1.163 1.767-2.469 3.6-4.39 4.39a1.207 1.207 0 0 1-.8.11c-.483-.165-.593-.8-.626-1.306-.406-8.439-.8-17.022 1.262-25.242a23.278 23.278 0 0 1 3.556-8.132c.593-.79 5.334-4.192 7.331-4.554-.439 1.35-.889 2.711-1.284 4.072a1.339 1.339 0 0 0-.132.406v.121a31.03 31.03 0 0 0-.669 2.864c-1.647 8.867.395 12.522 3.994 13.103z" transform="translate(18.373 -13.874)"/>
        <path id="Path_843" data-name="Path 843" d="M259.941 231.568c6-6.332 10.4-13.982 14.75-21.543 2.645-4.609 5.356-9.427 5.729-14.739a2.941 2.941 0 0 0-.274-1.767 3.172 3.172 0 0 0-1.01-.933L270.894 187c-.143 5.059-3.775 9.405-7.924 12.314-4.39 3.117-16.956 6.53-14.267 12.994.67 1.635 10.536 19.992 11.238 19.26z" transform="translate(19.78 -14.095)" style="fill:url(#linear-gradient-5)"/>
        <path id="Path_844" data-name="Path 844" d="M248.277 209.826a144.71 144.71 0 0 1-8.242 14.168c-1.163 1.767-2.469 3.6-4.39 4.39a1.207 1.207 0 0 1-.8.11c-.483-.165-.593-.8-.626-1.306-.406-8.439-.8-17.022 1.262-25.242a23.278 23.278 0 0 1 3.556-8.132c.593-.79 5.334-4.192 7.331-4.554-.439 1.35-.889 2.711-1.284 4.072a1.339 1.339 0 0 0-.132.406v.121a31.03 31.03 0 0 0-.669 2.864c-1.647 8.867.395 12.522 3.994 13.103z" transform="translate(18.373 -13.874)" style="fill:url(#linear-gradient-6)"/>
        <path id="Path_845" data-name="Path 845" class="cls-2" d="m307.191 342.04 48.069-9.186c2.842-.549 5.806-1.1 8.055-2.963 3.084-2.48 4.17-6.826 3.72-10.766s-2.195-7.594-3.929-11.172c-6.826-14.135-20.676-39.509-20.764-38.027-8.407 1.778-15.365 1.866-22.586 6.486a8.264 8.264 0 0 0-3.051 2.842c-2.886 5.487 5 13.5 7.682 17.669a10.339 10.339 0 0 1 2 4.554 7.506 7.506 0 0 1-.637 3.413c-2.6 6.387-11.864 10.108-17.559 13.389a59.121 59.121 0 0 1-24.451 8.209c-6.716.571-13.576-.3-20.138 1.207a28.852 28.852 0 0 0-18.909 14.75c3.907 2.48 8.988 1.043 13.488-.088a78.941 78.941 0 0 1 25.516-2.052c5.55.473 20.86 6.904 23.494 1.735z" transform="translate(19.426 -6.018)"/>
        <path id="Path_846" data-name="Path 846" class="cls-6" d="M249.244 357.364H113.159l-35.9-91.089A8 8 0 0 1 84.7 255.3h106.829a25.758 25.758 0 0 1 23.98 16.319z" transform="translate(3.051 -7.438)"/>
        <path id="Path_847" data-name="Path 847" d="M249.244 357.364H113.159l-35.9-91.089A8 8 0 0 1 84.7 255.3h106.829a25.758 25.758 0 0 1 23.98 16.319z" transform="translate(3.051 -7.438)" style="fill:url(#linear-gradient-7)"/>
        <path id="Path_848" data-name="Path 848" d="M242.179 356.994h-129.3L78.767 270.5a7.605 7.605 0 0 1 7.068-10.393h101.471a24.517 24.517 0 0 1 22.783 15.507z" transform="translate(3.203 -6.969)" style="fill:url(#linear-gradient-8)"/>
        <path id="Path_849" data-name="Path 849" class="cls-6" d="M243.927 74.928c3.292-1.932 6.585-3.9 10.305-4.62s8.78-.285 11.293 2.524a23.508 23.508 0 0 0-16.78 8.857 1.635 1.635 0 0 1-.845.724 1.592 1.592 0 0 1-.889-.165c-1.514-.571-12.862 2.019-13.521.648.033.004 9.043-7.123 10.437-7.968z" transform="translate(18.334 -25.498)"/>
        <path id="Path_850" data-name="Path 850" d="M243.927 74.928c3.292-1.932 6.585-3.9 10.305-4.62s8.78-.285 11.293 2.524a23.508 23.508 0 0 0-16.78 8.857 1.635 1.635 0 0 1-.845.724 1.592 1.592 0 0 1-.889-.165c-1.514-.571-12.862 2.019-13.521.648.033.004 9.043-7.123 10.437-7.968z" transform="translate(18.334 -25.498)" style="fill:url(#linear-gradient-9)"/>
        <ellipse id="Ellipse_20" data-name="Ellipse 20" class="cls-6" cx="13.323" cy="16.418" rx="13.323" ry="16.418" transform="translate(224.409 100.286)"/>
        <ellipse id="Ellipse_21" data-name="Ellipse 21" class="cls-6" cx="12.325" cy="15.189" rx="12.325" ry="15.189" transform="translate(228.141 103.359)"/>
        <ellipse id="Ellipse_22" data-name="Ellipse 22" cx="12.325" cy="15.189" rx="12.325" ry="15.189" transform="translate(228.141 103.359)" style="fill:url(#linear-gradient-10)"/>
        <path id="Path_851" data-name="Path 851" class="cls-2" d="m219.19 111.107 3.084 56.421s1.372 21.291 22.476 21.5c25.351.252 33.067-14.487 36.919-25.7s7.331-44.162 0-53.271-48.585-31.534-62.479 1.05z" transform="translate(16.94 -23.156)"/>
        <path id="Path_852" data-name="Path 852" d="M236.249 78.72c-9.943-.176-21.3 4.467-25.834 13.85a16.242 16.242 0 0 0-.307 13.971 9.559 9.559 0 0 1 .856 2.052 9.613 9.613 0 0 1 0 2.381 11.622 11.622 0 0 0 4.708 9.877c1.745 1.262 3.863 2.052 5.257 3.688l-.538-10.5a2.195 2.195 0 0 1 1.668-2.612l6.684-3.117s2.063 1.5 2.316 1.624a8.407 8.407 0 0 0 3.512.669 49.386 49.386 0 0 0 7.836-.439c5.608-.8 10.975-2.853 16.21-4.895a7.375 7.375 0 0 1-2 4.324l17.044 3.292a46.314 46.314 0 0 1 5.981 11.172 38.928 38.928 0 0 1 2.3 9.669 34.932 34.932 0 0 1-1.24 13.378 14.036 14.036 0 0 0 3.007-3.139 17.264 17.264 0 0 0 5.048 2.4 2.195 2.195 0 0 0 1.174.1c.834-.23 1.01-1.218 1.1-2.008.68-7.079 5.948-13.06 8.363-19.82 2.93-8.187 1.449-17.395-3.029-24.978a20.139 20.139 0 0 0-5.3-6.19c-7.847-5.751-19-3.117-27.952-6.124-4.258-1.427-7.682-4.137-11.754-5.926-4.52-1.919-10.183-2.611-15.11-2.699z" transform="translate(15.916 -24.648)" style="fill:#3f3d56"/>
        <path id="Path_853" data-name="Path 853" d="M236.249 78.72c-9.943-.176-21.3 4.467-25.834 13.85a16.242 16.242 0 0 0-.307 13.971 9.559 9.559 0 0 1 .856 2.052 9.613 9.613 0 0 1 0 2.381 11.622 11.622 0 0 0 4.708 9.877c1.745 1.262 3.863 2.052 5.257 3.688l-.538-10.5a2.195 2.195 0 0 1 1.668-2.612l6.684-3.117s2.063 1.5 2.316 1.624a8.407 8.407 0 0 0 3.512.669 49.386 49.386 0 0 0 7.836-.439c5.608-.8 10.975-2.853 16.21-4.895a7.375 7.375 0 0 1-2 4.324l17.044 3.292a46.314 46.314 0 0 1 5.981 11.172 38.928 38.928 0 0 1 2.3 9.669 34.932 34.932 0 0 1-1.24 13.378 14.036 14.036 0 0 0 3.007-3.139 17.264 17.264 0 0 0 5.048 2.4 2.195 2.195 0 0 0 1.174.1c.834-.23 1.01-1.218 1.1-2.008.68-7.079 5.948-13.06 8.363-19.82 2.93-8.187 1.449-17.395-3.029-24.978a20.139 20.139 0 0 0-5.3-6.19c-7.847-5.751-19-3.117-27.952-6.124-4.258-1.427-7.682-4.137-11.754-5.926-4.52-1.919-10.183-2.611-15.11-2.699z" transform="translate(15.916 -24.648)" style="fill:url(#linear-gradient-11)"/>
        <ellipse id="Ellipse_23" data-name="Ellipse 23" class="cls-6" cx="13.181" cy="16.253" rx="13.181" ry="16.253" transform="translate(297.939 102.47)"/>
        <ellipse id="Ellipse_24" data-name="Ellipse 24" cx="13.181" cy="16.253" rx="13.181" ry="16.253" transform="translate(297.939 102.47)" style="fill:url(#linear-gradient-12)"/>
        <ellipse id="Ellipse_25" data-name="Ellipse 25" class="cls-6" cx="13.181" cy="16.253" rx="13.181" ry="16.253" transform="translate(302.988 102.47)"/>
        <path id="Path_854" data-name="Path 854" class="cls-6" d="m296.348 129.373-6.585.7-1.569.165-6.585-32.408c-3.424-12.818-11.8-22.674-22.3-26.493a11.852 11.852 0 0 0-5.07-.6l-4.489.406 2.195-.582 4.39-1.163a14.453 14.453 0 0 1 4.214-.516c11.721.428 22.838 9.877 26.866 23.42z" transform="translate(19.919 -25.607)"/>
        <path id="Path_855" data-name="Path 855" d="m296.348 129.373-6.585.7-1.569.165-6.585-32.408c-3.424-12.818-11.8-22.674-22.3-26.493a11.852 11.852 0 0 0-5.07-.6l-4.489.406 2.195-.582 4.39-1.163a14.453 14.453 0 0 1 4.214-.516c11.721.428 22.838 9.877 26.866 23.42z" transform="translate(19.919 -25.607)" style="fill:url(#linear-gradient-13)"/>
        <path id="Path_856" data-name="Path 856" class="cls-6" d="m296.153 129.373-6.585.7-6.584-32.483c-3.479-12.95-11.929-22.882-22.531-26.734a11.578 11.578 0 0 0-5.125-.615l-3.578.318 4.39-1.163a14.453 14.453 0 0 1 4.214-.516c11.721.428 22.838 9.877 26.866 23.42z" transform="translate(20.114 -25.607)"/>
        <rect id="Rectangle_187" data-name="Rectangle 187" width="195.25" height="223.29" rx="15.64" transform="translate(0 5.663)" style="opacity:.45;fill:#27aee3"/>
        <circle id="Ellipse_26" data-name="Ellipse 26" cx="29.214" cy="29.214" r="29.214" transform="translate(29.664 149.167)" style="fill:url(#linear-gradient-14)"/>
        <path id="Rectangle_188" data-name="Rectangle 188" class="cls-6" transform="translate(17.395 26.833)" d="M0 0h124.793v7.024H0z"/>
        <path id="Rectangle_189" data-name="Rectangle 189" class="cls-21" transform="translate(21.159 119.196)" d="M0 0h124.793v7.024H0z"/>
        <path id="Rectangle_190" data-name="Rectangle 190" class="cls-6" transform="translate(21.159 107.178)" d="M0 0h88.708v7.024H0z"/>
        <path id="Rectangle_191" data-name="Rectangle 191" class="cls-6" transform="translate(122.005 107.178)" d="M0 0h59.384v7.024H0z"/>
        <path id="Rectangle_192" data-name="Rectangle 192" class="cls-6" transform="translate(89.882 62.72)" d="M0 0h91.309v6.245H0z"/>
        <path id="Rectangle_193" data-name="Rectangle 193" class="cls-21" transform="translate(70.753 73.793)" d="M0 0h97.685v6.245H0z"/>
        <path id="Rectangle_194" data-name="Rectangle 194" class="cls-6" transform="translate(22.86 62.72)" d="M0 0h60.053v6.245H0z"/>
        <path id="Rectangle_195" data-name="Rectangle 195" class="cls-6" transform="translate(49.199 84.549)" d="M0 0h131.992v6.245H0z"/>
        <path id="Rectangle_196" data-name="Rectangle 196" class="cls-21" transform="translate(22.86 84.549)" d="M0 0h19.381v6.245H0z"/>
        <path id="Rectangle_197" data-name="Rectangle 197" class="cls-21" transform="translate(94.064 95.633)" d="M0 0h87.117v6.245H0z"/>
        <path id="Rectangle_198" data-name="Rectangle 198" class="cls-6" transform="translate(22.86 95.633)" d="M0 0h60.053v6.245H0z"/>
        <path id="Rectangle_199" data-name="Rectangle 199" class="cls-6" transform="translate(22.86 73.53)" d="M0 0h38.62v6.245H0z"/>
        <path id="Path_857" data-name="Path 857" class="cls-6" d="M66.115 174.677c-1.712 2.1-2 5.026-1.679 7.682a3.622 3.622 0 0 1 0 1.46 3.292 3.292 0 0 1-.658 1.1 112.894 112.894 0 0 1-15.551 15.847 1.6 1.6 0 0 1-.56.351 1.646 1.646 0 0 1-1.1-.154c-1.646-.648-3.413-1.35-5.136-.933a5.158 5.158 0 0 0-3.391 3.237 8.78 8.78 0 0 0-.252 4.818 73 73 0 0 1 5.849-4.39l2.886 2.864a1.284 1.284 0 0 1 .5.966 1.251 1.251 0 0 1-.34.593l-4.258 5.026a8.242 8.242 0 0 0 8.439-1.4c2.195-2.085 2.524-5.981.373-8.077l16.341-18.317a6.256 6.256 0 0 0 7.583-.11 8.231 8.231 0 0 0 2.853-7.309 30.641 30.641 0 0 0-5.619 4.324l-3.292-4.1c1.163-1.1 5.674-4.126 2.744-5.312-1.923-.789-4.481.308-5.732 1.834z" transform="translate(-.761 -15.5)"/>
        <path id="Path_858" data-name="Path 858" d="m154.148 204.627 1.569-4.993s-6.2-4.895-6.387-4.587l-.252-3.611 5.674-6.036-2.612-4.533s-7.682 1.251-7.682 1.6a36.315 36.315 0 0 0-4.774-3.786l-.241-8.231-5.048-1.372s-4.62 6.409-4.313 6.585c0 0-3.556.746-5.257 1.284l-5.751-4.895-4.39 2.831s1.306 6.113 1.822 7.4a93.05 93.05 0 0 1-2.766 2.875l-8.187 1.317-.7 5.18s5.762 3.117 6.881 3.435a17.943 17.943 0 0 0 .768 4.95l-4.467 6.87 3.365 3.99s4.467-1.569 6.409-2.425c1.811 1.646 4.39 3.6 4.39 3.6l2.063 8.033 5.224.219s2.513-5.849 2.777-7.134a25.875 25.875 0 0 1 5.059-.066l7.342 3.852 3.677-3.731a75.055 75.055 0 0 0-3.545-6.936 14.357 14.357 0 0 0 1.262-1.8zm-24.364.187a10.382 10.382 0 1 1 10.371-10.382 10.382 10.382 0 0 1-10.371 10.382z" transform="translate(5.796 -15.841)" style="fill:url(#linear-gradient-15)"/>
        <path id="Path_859" data-name="Path 859" d="M212.816 107.632c1.943-3.841 6.157-6.124 10.4-6.815s8.593-.055 12.84.593c-4.115 3.292-15.606 8.2-15.825 9.076a26.748 26.748 0 0 0-.055 4.675c.154 2.261.23 4.631.219 6.892a17.56 17.56 0 0 0-3.534-2.678 8.78 8.78 0 0 1-2.963-1.9 9.12 9.12 0 0 1-1.087-9.844z" transform="translate(16.225 -22.524)" style="fill:url(#linear-gradient-16)"/>
        <path id="Path_860" data-name="Path 860" class="cls-6" d="M265.1 175.952a51.142 51.142 0 0 1-14.6-2.436 2.2 2.2 0 0 1 1.262-4.214c11.3 3.4 19.809 2.952 25.242-1.339 7.4-5.806 6.914-16.868 6.914-16.978a2.2 2.2 0 1 1 4.39-.219c0 .538.582 13.466-8.593 20.665q-5.73 4.51-14.615 4.521z" transform="translate(19.839 -17.83)"/>
        <path id="Path_861" data-name="Path 861" d="M265.1 175.952a51.142 51.142 0 0 1-14.6-2.436 2.2 2.2 0 0 1 1.262-4.214c11.3 3.4 19.809 2.952 25.242-1.339 7.4-5.806 6.914-16.868 6.914-16.978a2.2 2.2 0 1 1 4.39-.219c0 .538.582 13.466-8.593 20.665q-5.73 4.51-14.615 4.521z" transform="translate(19.839 -17.83)" style="fill:url(#linear-gradient-17)"/>
        <path id="Path_862" data-name="Path 862" class="cls-6" d="M252.7 164.5a5.816 5.816 0 0 1 2.777 3.007c.483 1.866-.966 3.655-2.458 4.873a9.186 9.186 0 0 1-4.555 2.195c-2.48.3-4.851-1.043-6.914-2.458a9.153 9.153 0 0 1-2.875-2.777c-1.91-3.358.56-7.682 3.8-9.109 3.59-1.547 7.409 2.415 10.225 4.269z" transform="translate(18.775 -16.738)"/>
        <path id="Path_863" data-name="Path 863" d="M252.7 164.5a5.816 5.816 0 0 1 2.777 3.007c.483 1.866-.966 3.655-2.458 4.873a9.186 9.186 0 0 1-4.555 2.195c-2.48.3-4.851-1.043-6.914-2.458a9.153 9.153 0 0 1-2.875-2.777c-1.91-3.358.56-7.682 3.8-9.109 3.59-1.547 7.409 2.415 10.225 4.269z" transform="translate(18.775 -16.738)" style="fill:url(#linear-gradient-18)"/>
    </g>
</svg>
