<svg xmlns="http://www.w3.org/2000/svg" width="30" height="30" viewBox="0 0 30 30">
    <g data-name="Layer 2">
        <g data-name="invisible box">
            <path data-name="Rectangle 201" style="fill:none" d="M0 0h30v30H0z"/>
        </g>
        <g data-name="icons Q2">
            <path data-name="Path 865" d="M15.253 3.307a11.44 11.44 0 1 1-11.44 11.44 11.44 11.44 0 0 1 11.44-11.44m0-2.542a13.918 13.918 0 1 0 9.906 4.076A13.982 13.982 0 0 0 15.253.765z"/>
            <path data-name="Path 866" d="m17.033 14.747 3.559-3.5a1.335 1.335 0 0 0 .127-1.716 1.208 1.208 0 0 0-1.907-.127l-3.559 3.564-3.559-3.559a1.208 1.208 0 0 0-1.907.127 1.335 1.335 0 0 0 .127 1.716l3.559 3.5-3.559 3.5a1.335 1.335 0 0 0-.127 1.716 1.208 1.208 0 0 0 1.907.127l3.559-3.559 3.559 3.559a1.208 1.208 0 0 0 1.907-.127 1.335 1.335 0 0 0-.127-1.716z"/>
        </g>
    </g>
</svg>
