<svg xmlns="http://www.w3.org/2000/svg" width="25" height="25" viewBox="0 0 25 25">
    <defs>
        <style>
            .cls-2{fill:#1a1a1a}
        </style>
    </defs>
    <g id="Linkedin" style="opacity:.499">
        <g id="Linkedin-2" data-name="Linkedin" transform="translate(2.344 1.302)">
            <path id="Shape" class="cls-2" d="M2.865 5.729a2.865 2.865 0 1 1 2.864-2.864 2.868 2.868 0 0 1-2.864 2.864zm0-4.166a1.3 1.3 0 1 0 1.3 1.3 1.3 1.3 0 0 0-1.3-1.3z"/>
            <path id="Shape-2" data-name="Shape" class="cls-2" d="M4.948 15.1H.781A.782.782 0 0 1 0 14.323V.781A.782.782 0 0 1 .781 0h4.167a.782.782 0 0 1 .781.781v13.542a.782.782 0 0 1-.781.777zM1.563 1.563v11.978h2.6V1.563z" transform="translate(0 6.25)"/>
            <path id="Shape-3" data-name="Shape" class="cls-2" d="M13.282 15.1H9.114a.782.782 0 0 1-.781-.781V7.031a1.3 1.3 0 0 0-2.6 0v7.292a.782.782 0 0 1-.781.781H.781A.782.782 0 0 1 0 14.323V.781A.782.782 0 0 1 .781 0h4.167a.782.782 0 0 1 .781.781v.453l.454-.2A8.092 8.092 0 0 1 8.639.419C8.791.405 8.944.4 9.1.4a4.962 4.962 0 0 1 4.967 4.945v8.979a.782.782 0 0 1-.785.776zM7.031 4.166A2.865 2.865 0 0 1 9.9 7.031v6.51h2.6v-8.2a3.4 3.4 0 0 0-3.406-3.38c-.1 0-.209 0-.313.014a6.514 6.514 0 0 0-1.983.5l-1.542.661a.771.771 0 0 1-.307.063.782.782 0 0 1-.782-.782v-.854h-2.6v11.978h2.6v-6.51a2.865 2.865 0 0 1 2.864-2.865z" transform="translate(7.292 6.25)"/>
        </g>
    </g>
</svg>
