<svg id="g10" xmlns="http://www.w3.org/2000/svg" width="83.924" height="60.089" viewBox="0 0 83.924 60.089">
    <defs>
        <clipPath id="clip-path">
            <path id="path78" class="cls-1" d="M46.85-451.461a10.261 10.261 0 0 1-8.987-5.19l-.008-.005-.07-.129L23.7-479.538l-.047.026-7.082-11.548-2.54-4.1-.007-.014a5.476 5.476 0 0 1-.106-.2l-.028-.054L4.278-511.1h24.333l.2.318c.141.227 14.192 22.8 21.173 34.04.03.048 3.267 5.093 8.325 5.093 2.424 0 4.923-1.149 7.428-3.414l3.532-3.194-13.288 21.47a10.321 10.321 0 0 1-9.131 5.326z" transform="translate(-4.278 511.1)"/>
        </clipPath>
        <clipPath id="clip-path-2">
            <path id="path94" class="cls-1" d="M384.448-514.769a14.688 14.688 0 0 0-12.491 6.96l-8.463 13.679h.007c-1.649 2.65-3.364 5.4-5.01 8.052l2.874 4.627c.03.048 3.083 4.782 7.757 4.782 2.252 0 4.6-1.09 6.976-3.24l3.461-3.13 10.406-16.813c.157-.281.3-.567.425-.857l8.627-14.063z" transform="translate(-358.491 514.769)"/>
        </clipPath>
        <linearGradient id="linear-gradient" x1=".5" x2=".5" y2="1" gradientUnits="objectBoundingBox">
            <stop offset="0" stop-color="#29abe2"/>
            <stop offset="1" stop-color="#23dff3"/>
        </linearGradient>
        <style>
            .cls-1{fill:url(#linear-gradient)}
        </style>
    </defs>
    <g id="g12">
        <g id="g74" transform="translate(0 .45)">
            <g id="g76" style="clip-path:url(#clip-path)">
                <path id="path88" class="cls-1" d="M46.85-451.461a10.261 10.261 0 0 1-8.987-5.19l-.008-.005-.07-.129L23.7-479.538l-.047.026-7.082-11.548-2.54-4.1-.007-.014a5.476 5.476 0 0 1-.106-.2l-.028-.054L4.278-511.1h24.333l.2.318c.141.227 14.192 22.8 21.173 34.04.03.048 3.267 5.093 8.325 5.093 2.424 0 4.923-1.149 7.428-3.414l3.532-3.194-13.288 21.47a10.321 10.321 0 0 1-9.129 5.326" transform="translate(-4.278 511.1)"/>
            </g>
        </g>
        <g id="g90" transform="translate(43.398)">
            <g id="g92" style="clip-path:url(#clip-path-2)">
                <path id="path104" class="cls-1" d="M384.448-514.769a14.688 14.688 0 0 0-12.491 6.96l-8.463 13.679h.007c-1.649 2.65-3.364 5.4-5.01 8.052l2.874 4.627c.03.048 3.083 4.782 7.757 4.782 2.252 0 4.6-1.09 6.976-3.24l3.461-3.13 10.406-16.813c.157-.281.3-.567.425-.857l8.627-14.063h-14.569" transform="translate(-358.491 514.769)"/>
            </g>
        </g>
    </g>
</svg>
