<svg id="Iconly_Light_Message" data-name="Iconly/Light/Message" xmlns="http://www.w3.org/2000/svg" width="32" height="32" viewBox="0 0 32 32">
    <defs>
        <style>
            .cls-1{fill:none;stroke:#151616;stroke-linecap:round;stroke-linejoin:round;stroke-miterlimit:10;stroke-width:1.5px}
        </style>
    </defs>
    <g id="Message" transform="translate(2.667 4.667)">
        <path id="Path_445" class="cls-1" d="M15.085 0 9.4 4.579a2.964 2.964 0 0 1-3.661 0L0 0" transform="translate(5.272 7.415)"/>
        <path id="Rectangle_511" class="cls-1" d="M6.517 0h12.571a6.609 6.609 0 0 1 4.774 2.12 6.689 6.689 0 0 1 1.768 4.939v8.7a6.689 6.689 0 0 1-1.769 4.941 6.609 6.609 0 0 1-4.774 2.12H6.517C2.624 22.821 0 19.654 0 15.763v-8.7C0 3.167 2.624 0 6.517 0z"/>
    </g>
</svg>
