<svg data-name="Layer 2" xmlns="http://www.w3.org/2000/svg" width="48" height="48" viewBox="0 0 48 48">
    <g data-name="invisible box">
        <path data-name="Rectangle 117" style="fill:none" d="M0 0h48v48H0z"/>
    </g>
    <g data-name="Q3 icons">
        <path data-name="Path 604" d="m26.5 37.4 11.9-12a1.9 1.9 0 0 0 0-2.8l-11.9-12a2.1 2.1 0 0 0-2.7-.2 1.9 1.9 0 0 0-.2 3l8.6 8.6H11a2 2 0 0 0 0 4h21.2l-8.6 8.6a1.9 1.9 0 0 0 .2 3 2.1 2.1 0 0 0 2.7-.2z" style="fill:#151616"/>
    </g>
</svg>
