<svg xmlns="http://www.w3.org/2000/svg" xmlns:xlink="http://www.w3.org/1999/xlink" width="355.156" height="499.78" viewBox="0 0 355.156 499.78">
    <defs>
        <linearGradient id="linear-gradient" y1=".5" x2="1" y2=".5" gradientUnits="objectBoundingBox">
            <stop offset="0" stop-color="#ecc4d7"/>
            <stop offset=".42" stop-color="#efd4d1"/>
            <stop offset="1" stop-color="#f2eac9"/>
        </linearGradient>
        <linearGradient id="linear-gradient-2" x1="-.09" y1=".574" x2="2.808" y2=".007" gradientUnits="objectBoundingBox">
            <stop offset="0" stop-color="#fff"/>
            <stop offset="0" stop-color="#fff" stop-opacity="0"/>
            <stop offset=".99" stop-color="#fff"/>
        </linearGradient>
        <linearGradient id="linear-gradient-3" x1=".876" y1="-.61" x2=".391" y2=".43" xlink:href="#linear-gradient"/>
        <linearGradient id="linear-gradient-4" x1="0" y1=".5" x2="1" y2=".5" xlink:href="#linear-gradient"/>
        <linearGradient id="linear-gradient-5" x1="0" y1=".5" x2="1" y2=".5" xlink:href="#linear-gradient"/>
        <linearGradient id="linear-gradient-6" x1="1.668" y1=".393" x2="-7.442" y2="1.07" gradientUnits="objectBoundingBox">
            <stop offset="0" stop-color="#fff"/>
            <stop offset="0" stop-opacity="0"/>
            <stop offset="1"/>
        </linearGradient>
        <style>
            .cls-5{fill:#27aee3}.cls-2{fill:#3f3d56}.cls-4{fill:#25233a}.cls-8{fill:#222a72}.cls-10{fill:#fff}
        </style>
    </defs>
    <g id="Question_Monochromatic" transform="translate(-.002 -.004)">
        <path id="Path_606" data-name="Path 606" d="M322.438 140.018c-18.631 19.446-24.825 47.691-40.64 69.49-18.488 25.5-50.473 43-57.145 73.8-7.311 33.917 20.026 65.011 47.6 86.021 13.278 10.126 27.539 19.892 36.178 34.178 5.4 8.942 8.278 19.144 12.606 28.657 13.732 30.363 44.078 53.532 77.365 55.221s67.322-20.3 76.339-52.372c4.4-15.681 3.3-33.228 11.832-47.061 11.16-18.144 34.6-23.741 51.548-36.64 32.422-24.657 34.212-80 3.454-106.727-26.968-23.413-72.079-26.48-87.239-58.826-4.109-8.765-5.278-18.623-8.874-27.606-18.717-46.716-90.905-51.666-123.024-18.135z" transform="translate(-221.189 -20.81)" style="opacity:.18;fill:#27aee3"/>
        <circle id="Ellipse_1" data-name="Ellipse 1" class="cls-2" cx="18.076" cy="18.076" r="18.076" transform="translate(141.813 202.488)"/>
        <path id="Path_607" data-name="Path 607" d="M481.953 427.49s-1.017 22.69-2.479 27.085.277 6.412-4.311 7.563-2.975-23.581-2.975-23.581l1.546-9.479z" transform="translate(-260.85 -70.155)" style="fill:url(#linear-gradient)"/>
        <path id="Path_608" data-name="Path 608" class="cls-4" d="m426.77 435.34 10.614 62.129h9.076l2.269-35.791 2.093 44.935h9.958s8.563-49.221 6.983-58.28a26.481 26.481 0 0 0-2.782-8.547z" transform="translate(-253.645 -71.408)"/>
        <path id="Path_609" data-name="Path 609" class="cls-2" d="M433.915 316.222c-.37-4.8-.109-9.9 2.471-13.959a13.883 13.883 0 0 1 9.421-6.185c5.521-.84 10.925 1.681 15.967 4.118 7.4 3.63 14.841 7.294 21.345 12.328s12.093 11.631 14.555 19.488a44.727 44.727 0 0 1 1.756 11.765 45.381 45.381 0 0 1-.765 11.093 31.732 31.732 0 0 1-22.547 23.53c-12.606 3.277-26.968-1.353-38.371 4.908a5.3 5.3 0 0 1-2.521.924 3.093 3.093 0 0 1-2.672-2.21 6.975 6.975 0 0 1 0-3.647 19.421 19.421 0 0 1 5.37-9.765c3.479-3.4 8.118-5.37 11.916-8.4a3.689 3.689 0 0 0 1.412-1.782c.454-1.681-1.294-3.067-2.9-3.689s-3.521-1.177-4.16-2.765c-.521-1.286 0-2.714.361-4.059 1.454-5.883-1.681-9.832-4.916-14.194-3.755-5.044-5.251-11.347-5.722-17.499z" transform="translate(-254.529 -49.151)"/>
        <path id="Path_610" data-name="Path 610" class="cls-4" d="M466.114 322.15s5.664 9.471 12.177 15.74 17.606 17.539 10.538 26.094a42.019 42.019 0 0 1-15.774 11.824L458.71 361.4v-23.53z" transform="translate(-258.743 -53.339)"/>
        <path id="Path_611" data-name="Path 611" class="cls-5" d="m408.357 311.947 13.681-1.017s-3.841 26.556 14.833 35.178 30.161 10.421 31.43 17.076 6.21 45.069 6.21 45.069l-9.4 2.193-.286-29.707.361 37.472s-20.371 11.429-26.236 9.177-18.177-4.126-17.883-23.219 9.244-32.606-.471-47.137-12.496-38.203-12.239-45.085z" transform="translate(-250.703 -51.548)"/>
        <path id="Path_612" data-name="Path 612" d="m408.357 311.947 13.681-1.017s-3.841 26.556 14.833 35.178 30.161 10.421 31.43 17.076 6.21 45.069 6.21 45.069l-9.4 2.193-.286-29.707.361 37.472s-20.371 11.429-26.236 9.177-18.177-4.126-17.883-23.219 9.244-32.606-.471-47.137-12.496-38.203-12.239-45.085z" transform="translate(-250.703 -51.548)" style="fill:url(#linear-gradient-2)"/>
        <path id="Path_613" data-name="Path 613" d="M447.12 353.33s.521 7.9 5.6 7.706 5.084-2.731 5.084-2.731l3.227-13.765-13.908.84s1.577 5.833-.003 7.95z" transform="translate(-256.893 -56.913)" style="fill:url(#linear-gradient-3)"/>
        <path id="Path_614" data-name="Path 614" class="cls-8" d="M447.857 349.695s-.639 4.067 1.975 5.219 6.824-.294 7.841-1.454l.235 5.513 2.353-10.042z" transform="translate(-257 -57.614)"/>
        <path id="Path_615" data-name="Path 615" d="M441.869 319.993s-2.933 20.908 7.605 25.136 13.765-7.118 15.127-12.564-2.58-24.959-10.925-21.925a22.69 22.69 0 0 0-11.807 9.353z" transform="translate(-255.995 -51.451)" style="fill:url(#linear-gradient-4)"/>
        <path id="Path_617" data-name="Path 617" d="M411.962 307.144s.983-7.311 1.008-7.446a3.765 3.765 0 0 0-1.563-3.555c-1.008-.756-2.118-2.521-2.118-6.6s4.32-8.488 6.1-6.723 1.79 3.16 3.446 3.42.378 4.462 0 5.883 2.034 14.379 2.034 14.379z" transform="translate(-250.854 -46.998)" style="fill:url(#linear-gradient-5)"/>
        <path id="Path_618" data-name="Path 618" d="m254.79 391.76 5.462 28.463-5.177 1.21z" transform="translate(-40.671 -62.535)" style="fill:url(#linear-gradient-6)"/>
        <path id="Path_619" data-name="Path 619" class="cls-4" d="M455.255 520.15s-2.361 23.278 1.513 42.2h2.7l5.748-42.2z" transform="translate(-258.078 -84.946)"/>
        <path id="Path_621" data-name="Path 621" class="cls-4" d="m439.4 509.267 5.412 47.473 1.983-.84s3.714-33.615 3.412-36.859-1.731-9.79-1.731-9.79z" transform="translate(-255.661 -83.206)"/>
        <path id="Path_622" data-name="Path 622" class="cls-4" d="M443.762 564.78a7.5 7.5 0 0 1 1.067 3.479c-.1.992-6.958 9.5-11.858 14.085-5.294 4.958-10.429 3.126-10.429 3.126-1.916-.193-2.908-4.6-1.445-5.883a41.623 41.623 0 0 1 10.622-6.622c8.782-3.715 10.084-7.4 10.084-7.4z" transform="translate(-252.627 -92.07)"/>
        <path id="Path_623" data-name="Path 623" class="cls-4" d="M457.073 570.36a12.985 12.985 0 0 0-.563 5.118c.336 2.462 10.925 14.513 10.925 14.513s8.673 5.63 11.715.79-8.975-11.261-11.362-12.606-8.017-7.807-8.017-7.807z" transform="translate(-258.383 -92.961)"/>
        <path id="Path_624" data-name="Path 624" class="cls-2" d="M377.743 198.309a18.429 18.429 0 0 0 17.211 12.933c4.832 0 10.269-1.84 15.312-7.933 13.446-16.236-11.3-44.851 22.035-79.449s36.808-95.928-23.068-100C363.507 20.763 344.8 49.2 339.54 67v18.043l32.119 12.606s12.286-37.279 32.514-32.531S405.35 103.3 392.584 116c-28.127 28.012-19.992 66.3-14.841 82.309z" transform="translate(-239.72 -5.686)"/>
        <path id="Path_625" data-name="Path 625" class="cls-5" d="M377.748 172.053a18.488 18.488 0 0 0 17.211 12.933c4.832 0 10.269-2.193 15.312-8.278 13.446-16.244-13.017-32.388 20.329-66.986S469.139 6.516 409.262 2.466 339.57 63.619 339.57 63.619l32.119 12.606s12.261-37.237 32.489-32.506 1.177 38.17-11.589 50.885c-28.127 27.984-19.989 61.44-14.841 77.449z" transform="translate(-239.725 -2.28)"/>
        <circle id="Ellipse_2" data-name="Ellipse 2" class="cls-5" cx="18.076" cy="18.076" r="18.076" transform="translate(141.813 190.664)"/>
        <circle id="Ellipse_3" data-name="Ellipse 3" class="cls-2" cx="7.681" cy="7.681" r="7.681" transform="rotate(-64.95 206.3 53.324)"/>
        <path id="Path_626" data-name="Path 626" class="cls-2" d="M295.246 233.018A7.858 7.858 0 0 0 304 235.69a8.212 8.212 0 0 0 4.967-5.4c3.009-8.4-11.026-16.278-2.714-34.943s.79-43.7-23.715-36.607c-18.723 5.4-22.077 19.471-21.6 27.354l2.614 7.194 14.656.37s-.5-16.665 8.269-17.707 6.009 15.085 2.748 22.018c-7.173 15.284 1.634 29.402 6.021 35.049z" transform="translate(-227.167 -27.059)"/>
        <path id="Path_627" data-name="Path 627" class="cls-5" d="M291.848 222.539a7.824 7.824 0 0 0 8.748 2.672c1.941-.689 3.79-2.361 4.916-5.53 3.017-8.4-9.891-11.051-1.588-29.716s.429-46.826-24.085-39.758-18.939 34.549-18.939 34.549l14.656.361s-.5-16.656 8.269-17.7 6.009 15.085 2.748 22.009c-7.188 15.281.879 27.466 5.275 33.113z" transform="translate(-227.08 -25.715)"/>
        <circle id="Ellipse_4" data-name="Ellipse 4" class="cls-5" cx="7.681" cy="7.681" r="7.681" transform="rotate(-26.08 478.492 -45.838)"/>
        <path id="Path_628" data-name="Path 628" class="cls-2" d="M273.815 343.378a7.673 7.673 0 1 1-3.353-4.844 7.681 7.681 0 0 1 3.353 4.844z" transform="translate(-226.804 -55.76)"/>
        <path id="Path_629" data-name="Path 629" class="cls-2" d="M248.65 320.688a7.832 7.832 0 0 0 8.328 3.8 8.127 8.127 0 0 0 5.63-4.689c4.093-7.967-8.79-17.589 1.891-35s6.521-43.187-18.707-39.4c-19.27 2.891-24.438 16.4-24.993 24.278l1.681 7.479 14.454 2.3s1.681-16.581 10.521-16.463 3.975 15.74-.16 22.177c-9.133 14.197-2.25 29.349 1.355 35.518z" transform="translate(-220.766 -41.028)"/>
        <path id="Path_630" data-name="Path 630" class="cls-5" d="M246.56 309.786a7.841 7.841 0 0 0 8.328 3.8c2.008-.429 4.059-1.849 5.6-4.832 4.093-7.967-8.362-12.253 2.319-29.665s6.563-46.372-18.665-42.582-23.346 31.758-23.346 31.758l14.454 2.286s1.681-16.581 10.521-16.463 3.975 15.74-.16 22.177c-9.094 14.209-2.665 27.353.949 33.521z" transform="translate(-220.76 -39.614)"/>
        <circle id="Ellipse_5" data-name="Ellipse 5" class="cls-5" cx="7.681" cy="7.681" r="7.681" transform="rotate(-4.27 3733.947 -266.216)"/>
        <path id="Path_631" data-name="Path 631" class="cls-2" d="M541.368 274.055a7.681 7.681 0 1 1-5.782-9.2 7.681 7.681 0 0 1 5.782 9.2z" transform="translate(-269.516 -44.162)"/>
        <path id="Path_632" data-name="Path 632" class="cls-2" d="M526.753 244.086a7.832 7.832 0 0 0 5.883 6.992 8.2 8.2 0 0 0 7.093-1.832c7.1-5.454-.429-19.656 16.665-30.833s24.371-36.262-.076-43.615c-18.656-5.622-29.111 4.387-32.976 11.269l-1.681 7.463 12.118 8.252s8.614-14.286 16.547-10.387-3.135 15.925-9.631 19.984c-14.312 8.941-14.547 25.58-13.942 32.707z" transform="translate(-268.792 -29.555)"/>
        <path id="Path_633" data-name="Path 633" class="cls-5" d="M529.251 233.259a7.824 7.824 0 0 0 5.883 6.992c2 .479 4.471.067 7.135-1.975 7.1-5.454-2.328-14.656 14.774-25.833s25.741-39.094 1.37-46.473-34.682 18.74-34.682 18.74l12.118 8.252s8.614-14.286 16.547-10.4-3.135 15.967-9.622 19.992c-14.355 8.946-14.153 23.587-13.523 30.705z" transform="translate(-269.122 -28.199)"/>
        <circle id="Ellipse_6" data-name="Ellipse 6" class="cls-5" cx="7.681" cy="7.681" r="7.681" transform="rotate(-68.28 295.549 -74.591)"/>
        <path id="Path_634" data-name="Path 634" class="cls-2" d="M588.691 355.9a5.706 5.706 0 1 1 .965-4.263 5.706 5.706 0 0 1-.965 4.263z" transform="translate(-277.837 -57.29)"/>
        <path id="Path_635" data-name="Path 635" class="cls-2" d="M584.407 331.839a5.824 5.824 0 0 0 2.093 6.471 6.067 6.067 0 0 0 5.4.748c6.429-1.74 5.261-13.639 20.169-16.5s27-18.051 12.278-30.018c-11.236-9.135-21.253-5.21-25.858-1.572l-3.286 4.647 6 9.11s9.958-7.378 14.286-2.471-6.656 10.084-12.269 11.026c-12.342 2.105-17.22 13.475-18.813 18.559z" transform="translate(-278.763 -47.717)"/>
        <path id="Path_636" data-name="Path 636" class="cls-5" d="M589.367 325.237a5.832 5.832 0 0 0 2.093 6.479 6.225 6.225 0 0 0 5.454.656c6.429-1.74 2.521-10.732 17.471-13.58s28.766-19.623 14.043-31.59-29.144 3.076-29.144 3.076l6 9.1s9.958-7.378 14.286-2.462-6.656 10.084-12.27 11.026c-12.345 2.101-16.345 12.219-17.933 17.295z" transform="translate(-279.555 -47.023)"/>
        <circle id="Ellipse_7" data-name="Ellipse 7" class="cls-5" cx="5.715" cy="5.715" r="5.715" transform="rotate(-55.55 428.84 -138.264)"/>
        <path id="Path_637" data-name="Path 637" class="cls-10" d="M411.494 499.429a.589.589 0 0 1-.3-.084.6.6 0 0 1-.219-.84 200.19 200.19 0 0 0 15.5-36.573c6.236-19.791 12.118-49.33 4.706-77.684-14.286-54.582-17.6-88.1-17.648-88.432a.605.605 0 0 1 .546-.655.6.6 0 0 1 .647.538c0 .336 3.362 33.766 17.6 88.239 7.488 28.64 1.563 58.431-4.731 78.382A202.392 202.392 0 0 1 412 499.1a.605.605 0 0 1-.5.328z" transform="translate(-251.108 -49.031)"/>
    </g>
</svg>
