<svg id="Iconly_Light_Profile" data-name="Iconly/Light/Profile" xmlns="http://www.w3.org/2000/svg" width="32" height="32" viewBox="0 0 32 32">
    <defs>
        <style>
            .cls-1{fill:none;stroke:#151616;stroke-linecap:round;stroke-linejoin:round;stroke-miterlimit:10;stroke-width:1.5px}
        </style>
    </defs>
    <g id="Profile" transform="translate(5.333 3.333)">
        <circle id="Ellipse_736" class="cls-1" cx="6.371" cy="6.371" r="6.371" transform="translate(3.735)"/>
        <path id="Path_33945" class="cls-1" d="M0 4.021a2.953 2.953 0 0 1 .293-1.293C.9 1.507 2.624.86 4.052.567A22.383 22.383 0 0 1 7.176.128a33.4 33.4 0 0 1 5.846 0 22.639 22.639 0 0 1 3.124.439c1.428.293 3.149.879 3.759 2.16a3.027 3.027 0 0 1 0 2.6c-.61 1.281-2.331 1.867-3.759 2.148a20.955 20.955 0 0 1-3.124.452A34.429 34.429 0 0 1 8.262 8a5.421 5.421 0 0 1-1.086-.073 20.565 20.565 0 0 1-3.112-.452C2.624 7.194.915 6.609.293 5.327A3.039 3.039 0 0 1 0 4.021z" transform="translate(0 17.58)"/>
    </g>
</svg>
