<svg xmlns="http://www.w3.org/2000/svg" width="23.792" height="36.691" viewBox="0 0 23.792 36.691">
    <defs>
        <linearGradient id="a" x1=".5" y1="-.065" x2=".5" y2="1.145" gradientUnits="objectBoundingBox">
            <stop offset="0" stop-color="#27aee3"/>
            <stop offset="1" stop-color="#0fe3f5"/>
        </linearGradient>
    </defs>
    <path data-name="Scroll Icon" d="m11.913 30.825-6.433-6.8 2.082-1.97 4.345 4.593 4.319-4.591 2.088 1.964zm11.879-2.733V8.6a8.609 8.609 0 0 0-8.6-8.6H8.6A8.609 8.609 0 0 0 0 8.6v19.491a8.609 8.609 0 0 0 8.6 8.6h6.593a8.609 8.609 0 0 0 8.599-8.6zm-8.6-25.225A5.739 5.739 0 0 1 20.925 8.6v19.491a5.739 5.739 0 0 1-5.733 5.733H8.6a5.739 5.739 0 0 1-5.733-5.733V8.6A5.739 5.739 0 0 1 8.6 2.866zM11.9 5.8a1.433 1.433 0 1 0 1.433 1.433A1.433 1.433 0 0 0 11.9 5.8zm0 5.733a1.433 1.433 0 1 0 1.433 1.433 1.433 1.433 0 0 0-1.433-1.429zm0 5.733a1.433 1.433 0 1 0 1.429 1.434 1.433 1.433 0 0 0-1.429-1.43zm0 0" style="fill:url(#a)"/>
</svg>
