<svg xmlns="http://www.w3.org/2000/svg" width="30" height="30" viewBox="0 0 30 30">
    <g data-name="Layer 2">
        <g data-name="invisible box">
            <path data-name="Rectangle 202" style="fill:none" d="M0 0h30v30H0z"/>
        </g>
        <g data-name="icons Q2">
            <path data-name="Path 867" d="M29.528 16.359 5.81 5.125 5.248 5A1.248 1.248 0 0 0 4 6.248l3.745 11.235L4 28.718a1.248 1.248 0 0 0 1.248 1.248l.562-.125 23.718-11.235a1.248 1.248 0 0 0 0-2.247zM7.433 26.283l2.5-7.552h6.554a1.248 1.248 0 0 0 0-2.5H9.929l-2.5-7.552 18.6 8.8z" transform="translate(-1.503 -1.838)" style="fill:#27aee3"/>
        </g>
    </g>
</svg>
