<svg xmlns="http://www.w3.org/2000/svg" xmlns:xlink="http://www.w3.org/1999/xlink" width="530.726" height="419.059" viewBox="0 0 530.726 419.059">
    <defs>
        <linearGradient id="linear-gradient" x1="17.889" y1="3.785" x2="18.008" y2="6.355" gradientUnits="objectBoundingBox">
            <stop offset=".01" stop-color="#fff"/>
            <stop offset="1" stop-color="#fff" stop-opacity="0"/>
        </linearGradient>
        <linearGradient id="linear-gradient-2" x1="19.963" y1="4.223" x2="23.043" y2="8.404" gradientUnits="objectBoundingBox">
            <stop offset=".01"/>
            <stop offset=".08" stop-opacity=".69"/>
            <stop offset=".21" stop-opacity=".322"/>
            <stop offset="1" stop-opacity="0"/>
        </linearGradient>
        <linearGradient id="linear-gradient-3" x1="2.116" y1="1.184" x2="-1.95" y2="-.63" xlink:href="#linear-gradient-2"/>
        <linearGradient id="linear-gradient-4" x1=".551" y1="-.098" x2=".183" y2="3.842" xlink:href="#linear-gradient-2"/>
        <linearGradient id="linear-gradient-5" x1=".111" y1="-.201" x2="1.962" y2="2.916" xlink:href="#linear-gradient-2"/>
        <linearGradient id="linear-gradient-6" x1="-.255" y1="9.159" x2="3.881" y2="-38.251" xlink:href="#linear-gradient-2"/>
        <linearGradient id="linear-gradient-7" x1=".207" y1="-.104" x2="1.869" y2="3.319" xlink:href="#linear-gradient-2"/>
        <linearGradient id="linear-gradient-8" x1=".297" y1="-.125" x2="1.223" y2="2.658" xlink:href="#linear-gradient-2"/>
        <linearGradient id="linear-gradient-9" x1=".602" y1=".418" x2="-.83" y2="1.564" xlink:href="#linear-gradient-2"/>
        <linearGradient id="linear-gradient-10" x1="3.887" y1="-.598" x2="3.992" y2="2.23" xlink:href="#linear-gradient"/>
        <linearGradient id="linear-gradient-11" x1="3.823" y1="-.239" x2="6.632" y2="4.445" xlink:href="#linear-gradient-2"/>
        <linearGradient id="linear-gradient-12" x1="-19.297" y1="9.451" x2="-19.202" y2="12.55" xlink:href="#linear-gradient"/>
        <linearGradient id="linear-gradient-13" x1="-23.486" y1="11.365" x2="-20.881" y2="17.169" xlink:href="#linear-gradient-2"/>
        <style>
            .cls-2{fill:#27aee3}.cls-6{fill:#b2857f}.cls-7{fill:#fff}.cls-8{fill:#473f47}
        </style>
    </defs>
    <g id="Sending_emails_Monochromatic" data-name="Sending emails_Monochromatic" transform="translate(.001 .001)">
        <path id="Path_784" data-name="Path 784" d="M126.561 82.591c37.212-5.4 75.526-1.681 112.421-9.1 38.59-7.759 73.735-27.289 110.933-40.258s80.157-18.8 114.668.207c21.128 11.646 36.674 31.368 48.872 52.234a277.3 277.3 0 0 1 37.832 135.451c.345 23.623-2.4 47.411-9.648 69.9-24.229 75.168-97.564 127.2-174.9 143.238-84.921 17.637-177.262-3.852-245.839-56.927C62.5 332.062 4.755 251.34 24.56 177.812c13.134-48.899 46.211-87.117 102.001-95.221z" transform="translate(-20.59 -21.26)" style="opacity:.18;fill:#27aee3"/>
        <path id="Path_785" data-name="Path 785" class="cls-2" d="m327.576 220.428-42.366 31.354a4.231 4.231 0 0 1-5.912-.882l-17.572-23.747a3.955 3.955 0 0 1-.689-1.488 4.217 4.217 0 0 1 1.571-4.424l42.38-31.354a4.245 4.245 0 0 1 3.528-.7 4.328 4.328 0 0 1 2.384 1.585l17.572 23.76a4.217 4.217 0 0 1-.9 5.9z" transform="translate(70.302 42.206)"/>
        <path id="Path_786" data-name="Path 786" d="m308.515 189.184-7.842 35.227-39.638 1.254a4.217 4.217 0 0 1 1.571-4.424l42.38-31.354a4.245 4.245 0 0 1 3.528-.7z" transform="translate(70.302 42.206)" style="fill:url(#linear-gradient)"/>
        <path id="Path_787" data-name="Path 787" d="m258.85 197.362 1.3 25.028 39.83-29.466-24.1-8.614-2.8 12.6z" transform="translate(97.902 69.71)" style="fill:url(#linear-gradient-2)"/>
        <path id="Path_788" data-name="Path 788" class="cls-2" d="m391.175 70.684-47.328 67.436-9.1-25.235a877.936 877.936 0 0 0-92.63 30.2c-34.924 13.906-68.553 31.189-78.214 49.051-22.148 41.029 29.88 59.167 29.88 59.167a143.2 143.2 0 0 1-29.7-.717c-25.952-3.4-58.174-15.973-48.844-58.45 7.373-33.56 55.377-61.785 102.539-81.894h.069c6.891-2.922 13.782-5.664 20.48-8.269l.193-.083a752.349 752.349 0 0 1 77.084-24.808L311.073 55z" transform="translate(14.587 -8.499)"/>
        <path id="Path_789" data-name="Path 789" d="M155.224 179.266c-22.148 41.03 29.88 59.167 29.88 59.167a143.2 143.2 0 0 1-29.7-.717 161.375 161.375 0 0 1-10.915-14.237c-29.866-43.441 34.193-77.676 34.193-77.676 5.334-19.474 30.417-35.586 30.417-35.586V97.372h.069l20.48-8.269.193-.083 4.507 37.653-.91 3.514c-34.924 13.934-68.553 31.213-78.214 49.079z" transform="translate(23.269 4.368)" style="fill:url(#linear-gradient-3)"/>
        <path id="Path_790" data-name="Path 790" class="cls-6" d="M256.108 261.042a17.186 17.186 0 0 0-2.288 7.015 12.087 12.087 0 0 0 2.3 6.891 20.811 20.811 0 0 0 12.8 8.7 3.087 3.087 0 0 0 2.081-.1 2.494 2.494 0 0 0 1.006-1.185c1.254-2.55.744-5.582-.083-8.269s-1.957-5.416-1.833-8.269c.207-5.334 7.828-15.629-1.047-18.137-7.396-2.151-10.579 8.599-12.936 13.354z" transform="translate(67.622 64.273)"/>
        <path id="Path_791" data-name="Path 791" class="cls-2" d="M252.3 262.35s-2.619 2.15-2.122 4.521 9.909 18.9 23.319 17.007-8.614-15.16-8.614-15.16z" transform="translate(66.22 69.925)"/>
        <path id="Path_792" data-name="Path 792" class="cls-7" d="M255.846 257.92a2.288 2.288 0 0 1 2.191 2.04 9.482 9.482 0 0 0 6.119 6.891c3.5.951 6.7-1.971 8.269-1.144s5.981 12.335 4.824 15.615-6.588 3.2-11.412.951-13.617-11.219-14.292-14.761 2.386-8.641 4.301-9.592z" transform="translate(66.726 68.249)"/>
        <path id="Path_793" data-name="Path 793" class="cls-6" d="M214.825 275.448a19.089 19.089 0 0 0-2.205 7.911 13.589 13.589 0 0 0 2.894 7.484 23.168 23.168 0 0 0 14.664 9.069 3.39 3.39 0 0 0 2.3-.207 3.046 3.046 0 0 0 1.075-1.378c1.268-2.894.538-6.243-.5-9.22s-2.412-5.913-2.467-9.055c0-5.926 7.952-17.765-2.026-20.122-8.332-1.972-11.36 10.129-13.735 15.518z" transform="translate(52.039 68.928)"/>
        <path id="Path_794" data-name="Path 794" class="cls-2" d="M210.861 277s-2.756 2.522-2.136 5.127 11.894 20.535 26.724 17.779-10.281-16.332-10.281-16.332z" transform="translate(50.532 75.465)"/>
        <path id="Path_795" data-name="Path 795" class="cls-7" d="M214.524 271.88a2.55 2.55 0 0 1 2.55 2.178 10.433 10.433 0 0 0 7.125 7.318c3.942.882 7.374-2.495 9.11-1.668s7.249 13.438 6.092 17.117-7.181 3.873-12.652 1.613-15.684-11.825-16.539-15.725 2.233-9.675 4.314-10.833z" transform="translate(51.073 73.529)"/>
        <path id="Path_796" data-name="Path 796" class="cls-8" d="M244.368 166.872a6.792 6.792 0 0 1 1.1.289c8.71 3.308 19.2 18.055 25.125 25.056a124.689 124.689 0 0 1 19.047 29.439c10.006 22.341 10.929 50.1-3.129 70.137l-10.805-2.26a4.672 4.672 0 0 1-2.55-1.116 4.824 4.824 0 0 1-.73-3.735 96.879 96.879 0 0 0-1.061-23.113 46.267 46.267 0 0 0-4.741-14.995c-3.39-6.105-8.738-10.833-13.948-15.464-16.539-14.65-31.368-29.8-39.569-50.512 7.404-3.637 23.281-15.131 31.261-13.726z" transform="translate(52.225 33.769)"/>
        <path id="Path_797" data-name="Path 797" class="cls-8" d="M226.843 175.212a4.7 4.7 0 0 1 1.006.551c7.7 5.237 14.471 22.051 18.606 30.211a125.542 125.542 0 0 1 11.66 33.077c4.507 24.05-1.047 51.256-19.392 67.533l-9.992-4.727a4.741 4.741 0 0 1-2.219-1.668 4.865 4.865 0 0 1 .165-3.818 96.614 96.614 0 0 0 4.355-22.727 46.13 46.13 0 0 0-1.116-15.684c-1.861-6.712-5.968-12.556-9.951-18.289-12.611-18.082-23.554-36.288-26.7-58.34 8.035-1.819 26.164-9.288 33.578-6.119z" transform="translate(44.721 36.675)"/>
        <path id="Path_798" data-name="Path 798" class="cls-7" d="M259.9 148a.785.785 0 0 1 0 .179c.124 2.3.882 4.328.289 6.671-.634 2.6-3.06 4.962-5.706 4.576-2.205-.317-3.707-2.3-5.4-3.749a23.9 23.9 0 0 0-5.844-3.446 142.466 142.466 0 0 0-8.435-3.583c-1.819-.717-5.292-1.158-6.064-3.018s-.524-4.8-.744-6.767l-3.436-31.273 31.933 26.186a47.275 47.275 0 0 1 3.046 8.917A25.374 25.374 0 0 1 259.9 148z" transform="translate(56.555 11.392)"/>
        <path id="Path_799" data-name="Path 799" class="cls-7" d="M252.391 153.381c.193 1.847.62 3.68.841 5.513 1.158 10.185-.1 20.976 4.038 30.638.937 2.15 2.15 4.438 1.6 6.726a8.435 8.435 0 0 1-3.818 4.576c-8.435 5.9-18.675 8.531-28.653 11.026-7.511 1.9-18.082 5.361-25.58 2.026-3.2-1.378-4.576-4.576-5.885-7.718-4.135-10.006-6.312-21.032-8.269-31.7-.248-1.378-.51-2.756-.744-4.2q-2.439-14.43-3.818-29.108c-.634-7.112-.923-14.83 3.129-20.673 5.375-7.8 16.759-13.782 25.621-16.539a30.76 30.76 0 0 1 8.862-1.475 37.667 37.667 0 0 1 12.487 2.756c4.727 1.723 8.931 3.156 11.618 7.346a61.054 61.054 0 0 1 6.78 15.625 57.885 57.885 0 0 1 2.109 15.822c0 2.619-.358 5.265-.345 7.87a7.029 7.029 0 0 0 .028 1.488z" transform="translate(40.356 9.455)"/>
        <path id="Path_800" data-name="Path 800" d="M217.61 210.816c-2.867 1.2-9.978-.772-12.28-.923-1.378-.083-2.756-.634-4.135-.8-6.891-.951-9.827-19.833-11.026-24.808-3.225-13.3-7.442-26.972-9.124-40.478-.634-5.223-1.089-10.557.083-15.67s4.135-10.047 8.889-12.4c8.269-4.052 13.851 22.947 15.657 28.46l6.781 20.673c.992 3.087 1.309 6.519 3 9.344 2.577 4.286 4.755 3.473 9.069 2.756 9.055-1.571 17.517-5.416 26.434-7.566a2.881 2.881 0 0 1 2.274.11 2.66 2.66 0 0 1 .923 1.557 20.162 20.162 0 0 1 .855 5.361 3.212 3.212 0 0 1-.221 1.53 3.46 3.46 0 0 1-1.254 1.185 68.594 68.594 0 0 1-19.612 8.917c-5.513 1.544-10.736 4.135-14.457 8.738-3.349 4.135 1.006 8.49-.813 12.969a1.888 1.888 0 0 1-1.043 1.045z" transform="translate(39.855 14.316)" style="fill:#020202;opacity:.1"/>
        <path id="Path_801" data-name="Path 801" class="cls-2" d="m182.25 153.13 52.841-17.82 38.755 22.107-53.93 22.107z" transform="translate(68.93 51.177)"/>
        <path id="Path_802" data-name="Path 802" d="m182.25 153.13 52.841-17.82 38.755 22.107-53.93 22.107z" transform="translate(68.93 51.177)" style="fill:url(#linear-gradient-4)"/>
        <path id="Path_803" data-name="Path 803" class="cls-2" d="m183.83 151.06 52.841-17.82 38.755 22.107-53.926 22.106z" transform="translate(69.528 50.394)"/>
        <path id="Path_804" data-name="Path 804" d="m218.827 171.624 43.717-19.309-21.335-11.715-43.469 16.456z" transform="translate(74.789 53.178)" style="fill:url(#linear-gradient-5)"/>
        <path id="Path_805" data-name="Path 805" class="cls-2" d="M211.16 172.986h52.11l44.861-27.936-43.042 5.83z" transform="translate(79.865 54.861)"/>
        <path id="Path_806" data-name="Path 806" class="cls-6" d="M227.446 101.087a147.031 147.031 0 0 1-1.737 5.816c-1.378 4.41-4.135 8.435-8.931 9.5a22.95 22.95 0 0 1-3.211.386h-.717a.11.11 0 0 1-.1 0h-.124a5.375 5.375 0 0 0-1.6.165.91.91 0 0 0-.413.124c-1.378.634-1.268 2.867-1.172 4.135a6.34 6.34 0 0 1-.469 4.245.178.178 0 0 1-.083.138 4.259 4.259 0 0 1-2.991 1.378 9.386 9.386 0 0 1-6.6-2.012 10.888 10.888 0 0 1-2.522-3.514 7.981 7.981 0 0 1-.469-1.171 7.51 7.51 0 0 1-.179-2.081 22.616 22.616 0 0 1 .3-3.2 62.343 62.343 0 0 0 1.2-6.326 31.425 31.425 0 0 1 .22-3.225 15.355 15.355 0 0 0 .386-2.081c0-2.026-1.034-3.983-1.047-6.037a29.8 29.8 0 0 1 .565-6.05 23.885 23.885 0 0 1 5-10.764c4.727-5.513 13.107-8.269 19.695-5.127a14.085 14.085 0 0 1 7.125 7.773c2.215 5.799-.541 12.263-2.126 17.928z" transform="translate(45.8 -1.289)"/>
        <path id="Path_807" data-name="Path 807" class="cls-6" d="M216.966 165.972a98.039 98.039 0 0 1 3.487-.358 5.223 5.223 0 0 1 2.067.124 1.93 1.93 0 0 1 1.378 1.378 1.612 1.612 0 0 0 .152.73 1.1 1.1 0 0 0 .689.372c4.135 1.075 8.407 2.756 10.874 6.161a2.522 2.522 0 0 1 .551 2.426c-.565 1.158-2.219.992-3.459.648a1.516 1.516 0 0 1 0 1.737 1.916 1.916 0 0 1-1.612.772 3.417 3.417 0 0 0-1.24 0 3.13 3.13 0 0 0-.772.51 5.127 5.127 0 0 1-3.983.717c-1.378-.207-2.756-.675-4.135-.786-2.136-.165-4.052.538-6.037-.331a29.315 29.315 0 0 0-6.891-2.4 3.6 3.6 0 0 1-2-1.034 3.377 3.377 0 0 1 0-3 15.16 15.16 0 0 1 1.9-4.782c1.171-1.654 3.129-1.943 5.044-2.274 1.41-.238 2.664-.417 3.987-.61z" transform="translate(49.416 33.318)"/>
        <path id="Path_808" data-name="Path 808" class="cls-7" d="M190.728 116.32c-10.13 16.773-20.136 36.206-23.016 55.749-.758 5.141-1.171 11.2 1.24 16.029 3.942 7.856 17.352 9.386 25.07 10.171a158.855 158.855 0 0 0 27.812.372 1.254 1.254 0 0 0 1.461-1.488l.386-8.917a2.191 2.191 0 0 0-.165-1.227 2.357 2.357 0 0 0-1.971-.813 54.757 54.757 0 0 1-15.739-3.652c-4.782-1.9-14.127-6.891-13.451-13.176.372-3.528 4.245-7.828 6.161-10.612 4.6-6.684 9.565-13.162 14.637-19.5-.001-.002.495-36.07-22.425-22.936z" transform="translate(34.831 13.605)"/>
        <path id="Path_809" data-name="Path 809" class="cls-8" d="M228.485 95.888a4.989 4.989 0 0 0 3.253-2.467c.565 1.585 3.239 1.1 3.914-.455s0-3.322-.606-4.879a3.914 3.914 0 0 0 2.233-6.161c-.455-.51-1.089-.951-1.213-1.64a3.8 3.8 0 0 1 .234-1.544 4.617 4.617 0 0 0-1.888-4.231 13.644 13.644 0 0 0-4.465-2.012 3.363 3.363 0 0 0-.758-4.383 7.952 7.952 0 0 0-4.534-1.626c-2.384-.262-5.017-.152-6.891 1.378a6.767 6.767 0 0 0-8.269.882 3.239 3.239 0 0 1-1.544 1.158 2.756 2.756 0 0 1-1.3-.221 9.317 9.317 0 0 0-5.513-.565 3.8 3.8 0 0 0-2.88 4.259 3.377 3.377 0 0 0-2.88 2.563 2.618 2.618 0 0 1-.386 1.185c-.4.469-1.1.441-1.7.5a4.507 4.507 0 0 0 .083 8.986 4.135 4.135 0 0 0 .593 3.253c.73 1.171 1.709 1.254 2.674 1.985.565.441.345.482.317 1.378a14.732 14.732 0 0 0 .124 2.467 18.123 18.123 0 0 0 1.172 4.589c.413 1.061.937 2.081 1.309 3.156a25.127 25.127 0 0 1 1.02 5.058l2.329-6.588a.5.5 0 0 0 0-.276.565.565 0 0 0-.248-.289 5.651 5.651 0 0 1-1.626-6.891 2.3 2.3 0 0 1 1.792-1.378 2.692 2.692 0 0 1 2.109 1.626 11.149 11.149 0 0 1 1.089 2.756 15.16 15.16 0 0 1 2.577-4.135c.455-.51 1.006-1.378 1.737-1.116s1.075 1.585 1.378 2.067a8.642 8.642 0 0 0 2.908-1.874 5.03 5.03 0 0 0 2.453 4.838c1.737.813 4.259-.345 4.259-2.274 0 .868 3.763-.593 4.038-.758a3.156 3.156 0 0 0 3.1 1.681z" transform="translate(43.175 -4.194)"/>
        <path id="Path_810" data-name="Path 810" d="M205.63 105.363a18.784 18.784 0 0 0 3.349.138.91.91 0 0 0-.413.124c-1.378.634-1.268 2.867-1.171 4.135a6.34 6.34 0 0 1-.469 4.245 4.342 4.342 0 0 1-1.268-.179 3.445 3.445 0 0 1-1.144-.675 8.132 8.132 0 0 1-2.591-8.71 15.546 15.546 0 0 0 3.707.922z" transform="translate(47.852 10.201)" style="fill:#96625e"/>
        <path id="Path_811" data-name="Path 811" class="cls-7" d="M247.174 123.66s25.235 18.62 21.748 37.212c-3.239 17.3-6.147 31.051-6.147 31.051l-11.811-6.891s7.9-26.062-8.586-37.391 4.796-23.981 4.796-23.981z" transform="translate(60.927 17.47)"/>
        <path id="Path_812" data-name="Path 812" class="cls-6" d="m245.728 169.9-1.13 5.857a5.086 5.086 0 0 0-.083 2.274 1.723 1.723 0 0 0 1.613 1.378c.827 0 1.53-.91 2.357-.744a2.866 2.866 0 0 1 .827.4c1.764.965 3.9 0 5.761-.868a1.53 1.53 0 0 1 .979-.179c.4.11.648.51.992.758a1.985 1.985 0 0 0 2.246-.138 4.59 4.59 0 0 0 1.378-1.957 10.722 10.722 0 0 0-.73-10.226 9.386 9.386 0 0 0-8.958-3.335c-3.58.566-4.604 3.38-5.252 6.78z" transform="translate(64.068 32.338)"/>
        <path id="Path_813" data-name="Path 813" class="cls-2" d="M209.58 175.056h52.11l44.861-27.936-43.042 5.83z" transform="translate(79.267 55.644)"/>
        <path id="Path_814" data-name="Path 814" d="m211.758 165.32-2.178 2.853h52.11l2.178-2.853z" transform="translate(79.267 62.527)" style="fill:url(#linear-gradient-6)"/>
        <path id="Path_815" data-name="Path 815" class="cls-2" d="m294.428 145.05-2.178 2.853-44.86 27.936 2.178-2.853z" transform="translate(93.567 54.861)"/>
        <path id="Path_816" data-name="Path 816" d="m294.428 145.05-2.178 2.853-44.86 27.936 2.178-2.853z" transform="translate(93.567 54.861)" style="fill:url(#linear-gradient-7)"/>
        <path id="Path_817" data-name="Path 817" class="cls-7" d="m262.221 151.545 35.641-4.975-37.17 22.8-40.561.7z" transform="translate(83.257 55.436)"/>
        <path id="Path_818" data-name="Path 818" d="m209.424 151.945 20.177-7.484-9.73-7.112-20.7 7.112z" transform="translate(75.33 51.948)" style="fill:url(#linear-gradient-8)"/>
        <path id="Path_819" data-name="Path 819" class="cls-2" d="m226.2 241.178-80.061 36.55a7.07 7.07 0 0 1-9.358-3.487L116.3 229.367a6.533 6.533 0 0 1-.62-2.66 7.043 7.043 0 0 1 4.135-6.684l80.061-36.55a7.125 7.125 0 0 1 6.023.083 7.029 7.029 0 0 1 3.335 3.4l20.453 44.888a7.043 7.043 0 0 1-3.487 9.331z" transform="translate(15.374 39.855)"/>
        <path id="Path_820" data-name="Path 820" d="m226.2 241.178-80.061 36.55a7.07 7.07 0 0 1-9.358-3.487L116.3 229.367a6.533 6.533 0 0 1-.62-2.66 7.043 7.043 0 0 1 4.135-6.684l80.061-36.55a7.125 7.125 0 0 1 6.023.083 7.029 7.029 0 0 1 3.335 3.4l20.453 44.888a7.043 7.043 0 0 1-3.487 9.331z" transform="translate(15.374 39.855)" style="fill:url(#linear-gradient-9)"/>
        <path id="Path_821" data-name="Path 821" class="cls-2" d="m228.894 240.007-80.061 36.55a7.07 7.07 0 0 1-9.358-3.487L119 228.209a6.891 6.891 0 0 1-.634-2.66 7.084 7.084 0 0 1 4.135-6.7l80.061-36.537a7.084 7.084 0 0 1 9.358 3.473l20.48 44.888a7.043 7.043 0 0 1-3.5 9.331z" transform="translate(16.387 39.413)"/>
        <path id="Path_822" data-name="Path 822" d="m208.552 182.333-25 54.825-65.19-11.66a7.084 7.084 0 0 1 4.135-6.7l80.061-36.536a7.043 7.043 0 0 1 6 .069z" transform="translate(16.387 39.394)" style="fill:url(#linear-gradient-10)"/>
        <path id="Path_823" data-name="Path 823" d="m129.907 201.852-6.547 41.333 75.264-34.345-36.4-22.41-8.945 19.612z" transform="translate(46.657 70.511)" style="fill:url(#linear-gradient-11)"/>
        <path id="Path_824" data-name="Path 824" class="cls-2" d="m338.054 173.7-51.711-10.213a4.217 4.217 0 0 1-3.321-4.962l5.72-28.943a4.011 4.011 0 0 1 .62-1.516 4.217 4.217 0 0 1 4.341-1.819l51.711 10.213a4.135 4.135 0 0 1 2.894 2.136 4.286 4.286 0 0 1 .441 2.825l-5.733 28.943a4.217 4.217 0 0 1-4.962 3.335z" transform="translate(78.636 18.42)"/>
        <path id="Path_825" data-name="Path 825" d="M346.527 138.581 315.214 156.5l-27.564-28.449a4.217 4.217 0 0 1 4.341-1.819l51.709 10.213a4.135 4.135 0 0 1 2.827 2.136z" transform="translate(80.417 18.412)" style="fill:url(#linear-gradient-12)"/>
        <path id="Path_826" data-name="Path 826" d="m284.707 119.5-17.627 17.82 48.6 9.606-9.872-23.626-11.191 6.409z" transform="translate(101.014 45.197)" style="fill:url(#linear-gradient-13)"/>
    </g>
</svg>
