<svg xmlns="http://www.w3.org/2000/svg" width="25" height="25" viewBox="0 0 25 25">
    <g style="opacity:.499">
        <path d="M7.464 18.509h-.148a12.805 12.805 0 0 1-6.958-2.053.777.777 0 0 1-.31-.922.783.783 0 0 1 .831-.509 7.405 7.405 0 0 0 .921.057h.022a7.843 7.843 0 0 0 3.258-.726 5.059 5.059 0 0 1-2.717-3.044.781.781 0 0 1 .152-.752v-.012A5.059 5.059 0 0 1 .834 6.8v-.052a.778.778 0 0 1 .576-.754 5.073 5.073 0 0 1-.535-2.268 5.126 5.126 0 0 1 .677-2.543.778.778 0 0 1 .615-.391h.063a.778.778 0 0 1 .607.288 11.277 11.277 0 0 0 3.672 2.965 11.359 11.359 0 0 0 2.282.863 11.275 11.275 0 0 0 1.343.264A5.051 5.051 0 0 1 12.8.583a5.254 5.254 0 0 1 1.543-.5A5.67 5.67 0 0 1 15.3 0a4.347 4.347 0 0 1 .724.058 5.029 5.029 0 0 1 2.646 1.326h.078a4.165 4.165 0 0 0 1.279-.217 5.485 5.485 0 0 0 .854-.357c.1-.054.185-.1.234-.13l.011-.007.045-.028.009-.006a.781.781 0 0 1 1.087 1.079c-.221.336-.528.935-.854 1.57v.007c-.053.1-.1.205-.158.307-.233.454-.415.8-.575 1.079a7.898 7.898 0 0 1-.365.591v.285a12.887 12.887 0 0 1-.356 3.1 13 13 0 0 1-.606 1.874 12.852 12.852 0 0 1-11.889 7.978zM2.6 7.947A3.447 3.447 0 0 0 3.195 9a3.5 3.5 0 0 0 2.011 1.2.781.781 0 0 1 .075 1.513 4.933 4.933 0 0 1-.869.18 3.494 3.494 0 0 0 2.7 1.354.781.781 0 0 1 .468 1.4 9.4 9.4 0 0 1-3.7 1.766 11.275 11.275 0 0 0 3.442.537h.132a11.3 11.3 0 0 0 10.45-7 11.438 11.438 0 0 0 .533-1.647 11.308 11.308 0 0 0 .312-2.728v-.567a.782.782 0 0 1 .194-.515 4.294 4.294 0 0 0 .374-.583c.172-.3.364-.67.546-1.023l.035-.068a5.437 5.437 0 0 1-1.152.128 4.7 4.7 0 0 1-.508-.027.779.779 0 0 1-.49-.247A3.505 3.505 0 0 0 15.766 1.6a2.783 2.783 0 0 0-.462-.036 4.125 4.125 0 0 0-.694.062 3.787 3.787 0 0 0-1.071.337 3.491 3.491 0 0 0-1.747 3.9.782.782 0 0 1-.76.965h-.039a12.957 12.957 0 0 1-2.6-.4 12.932 12.932 0 0 1-2.6-.983 12.88 12.88 0 0 1-3.3-2.4 3.573 3.573 0 0 0-.067.684 3.477 3.477 0 0 0 1.548 2.9.782.782 0 0 1-.433 1.432h-.01a5.131 5.131 0 0 1-.931-.114z" transform="translate(1.301 3.399)" style="fill:#1a1a1a" data-name="Twitter"/>
    </g>
</svg>
