<svg xmlns="http://www.w3.org/2000/svg" width="25" height="25" viewBox="0 0 25 25">
    <defs>
        <style>
            .cls-2{fill:#1a1a1a}
        </style>
    </defs>
    <g id="Youtube" style="opacity:.499">
        <g id="Youtube-2" data-name="Youtube" transform="translate(1.703 4.63)">
            <path id="Shape" class="cls-2" d="M.782 7.813A.782.782 0 0 1 0 7.031V.781A.781.781 0 0 1 1.183.112l5.209 3.124a.782.782 0 0 1 0 1.34L1.183 7.7a.781.781 0 0 1-.401.113zm.781-5.652v3.49l2.908-1.744-2.908-1.746z" transform="translate(7.933 3.964)"/>
            <path id="Shape-2" data-name="Shape" class="cls-2" d="M10.8 15.74c-1.741 0-3.5-.069-5.241-.2l-2.333-.183a3.093 3.093 0 0 1-2.818-2.583 29.671 29.671 0 0 1 0-9.807A3.1 3.1 0 0 1 3.223.387L5.557.2C7.293.069 9.056 0 10.8 0s3.5.069 5.241.2l2.333.183a3.1 3.1 0 0 1 2.815 2.579 29.671 29.671 0 0 1 0 9.807 3.093 3.093 0 0 1-2.815 2.579l-2.333.183a65.62 65.62 0 0 1-5.241.209zm0-14.177c-1.7 0-3.423.067-5.119.2l-2.333.183a1.533 1.533 0 0 0-1.4 1.279 28.146 28.146 0 0 0 0 9.293 1.535 1.535 0 0 0 1.4 1.279l2.333.182a65.83 65.83 0 0 0 10.238 0l2.331-.179a1.535 1.535 0 0 0 1.4-1.279 28.146 28.146 0 0 0 0-9.293 1.533 1.533 0 0 0-1.4-1.279l-2.333-.183a64.297 64.297 0 0 0-5.117-.203z"/>
        </g>
    </g>
</svg>
